<mxfile host="app.diagrams.net" agent="Mozilla/5.0 (Macintosh; Intel Mac OS X 10_15_7) AppleWebKit/605.1.15 (KHTML, like Gecko) Version/17.6 Safari/605.1.15" version="24.7.17" pages="8">
  <diagram name="Seite-1" id="or8x36GpNiBjoDjEuf-u">
    <mxGraphModel dx="1122" dy="649" grid="1" gridSize="10" guides="1" tooltips="1" connect="1" arrows="1" fold="1" page="1" pageScale="1" pageWidth="827" pageHeight="1169" math="0" shadow="0">
      <root>
        <mxCell id="0" />
        <mxCell id="1" parent="0" />
        <mxCell id="qf7Y-mJlHb-uQuLbUJXK-1" value="" style="rounded=0;whiteSpace=wrap;html=1;" vertex="1" parent="1">
          <mxGeometry x="40" y="70" width="760" height="490" as="geometry" />
        </mxCell>
        <mxCell id="qf7Y-mJlHb-uQuLbUJXK-2" value="&lt;font style=&quot;font-size: 16px;&quot;&gt;FitFood Hub&lt;/font&gt;" style="text;html=1;align=center;verticalAlign=middle;whiteSpace=wrap;rounded=0;" vertex="1" parent="1">
          <mxGeometry x="285" y="90" width="270" height="30" as="geometry" />
        </mxCell>
        <mxCell id="qf7Y-mJlHb-uQuLbUJXK-3" value="Home &amp;nbsp; &amp;nbsp;Food Tracker &amp;nbsp; &amp;nbsp;Rezepte &amp;nbsp; &amp;nbsp;Mahlzeit&amp;nbsp;zusammenstellen" style="rounded=0;whiteSpace=wrap;html=1;" vertex="1" parent="1">
          <mxGeometry x="60" y="130" width="720" height="20" as="geometry" />
        </mxCell>
        <mxCell id="qf7Y-mJlHb-uQuLbUJXK-4" value="About us" style="rounded=0;whiteSpace=wrap;html=1;" vertex="1" parent="1">
          <mxGeometry x="60" y="200" width="720" height="130" as="geometry" />
        </mxCell>
        <mxCell id="qf7Y-mJlHb-uQuLbUJXK-6" value="Motivation" style="rounded=0;whiteSpace=wrap;html=1;" vertex="1" parent="1">
          <mxGeometry x="60" y="380" width="720" height="90" as="geometry" />
        </mxCell>
        <mxCell id="qf7Y-mJlHb-uQuLbUJXK-7" value="Footer mit Infos zu Copyright" style="rounded=0;whiteSpace=wrap;html=1;" vertex="1" parent="1">
          <mxGeometry x="60" y="530" width="720" height="30" as="geometry" />
        </mxCell>
        <mxCell id="qf7Y-mJlHb-uQuLbUJXK-8" value="Startseite Desktop PC" style="text;html=1;align=center;verticalAlign=middle;whiteSpace=wrap;rounded=0;" vertex="1" parent="1">
          <mxGeometry x="290" y="30" width="230" height="30" as="geometry" />
        </mxCell>
        <mxCell id="qf7Y-mJlHb-uQuLbUJXK-9" value="" style="rounded=0;whiteSpace=wrap;html=1;" vertex="1" parent="1">
          <mxGeometry x="160" y="650" width="480" height="420" as="geometry" />
        </mxCell>
        <mxCell id="qf7Y-mJlHb-uQuLbUJXK-10" value="&lt;span style=&quot;font-size: 16px;&quot;&gt;FitFood Hub&lt;/span&gt;" style="text;html=1;align=center;verticalAlign=middle;whiteSpace=wrap;rounded=0;" vertex="1" parent="1">
          <mxGeometry x="279" y="660" width="270" height="30" as="geometry" />
        </mxCell>
        <mxCell id="qf7Y-mJlHb-uQuLbUJXK-13" value="" style="shape=image;html=1;verticalAlign=top;verticalLabelPosition=bottom;labelBackgroundColor=#ffffff;imageAspect=0;aspect=fixed;image=https://cdn4.iconfinder.com/data/icons/essential-app-2/16/burger-menu-more-panel-128.png" vertex="1" parent="1">
          <mxGeometry x="570" y="665.5" width="19" height="19" as="geometry" />
        </mxCell>
        <mxCell id="qf7Y-mJlHb-uQuLbUJXK-14" value="About us" style="rounded=0;whiteSpace=wrap;html=1;" vertex="1" parent="1">
          <mxGeometry x="200" y="740" width="390" height="130" as="geometry" />
        </mxCell>
        <mxCell id="qf7Y-mJlHb-uQuLbUJXK-15" value="Motivation" style="rounded=0;whiteSpace=wrap;html=1;" vertex="1" parent="1">
          <mxGeometry x="200" y="890" width="390" height="130" as="geometry" />
        </mxCell>
        <mxCell id="qf7Y-mJlHb-uQuLbUJXK-16" value="Footer mit Infos zu Copyright" style="rounded=0;whiteSpace=wrap;html=1;" vertex="1" parent="1">
          <mxGeometry x="160" y="1050" width="480" height="30" as="geometry" />
        </mxCell>
        <mxCell id="qf7Y-mJlHb-uQuLbUJXK-17" value="Startseite Handy" style="text;html=1;align=center;verticalAlign=middle;whiteSpace=wrap;rounded=0;" vertex="1" parent="1">
          <mxGeometry x="299" y="610" width="230" height="30" as="geometry" />
        </mxCell>
      </root>
    </mxGraphModel>
  </diagram>
  <diagram id="IoYK9MZPXaFH3YSpdbb9" name="Seite-2">
    <mxGraphModel dx="1122" dy="649" grid="1" gridSize="10" guides="1" tooltips="1" connect="1" arrows="1" fold="1" page="1" pageScale="1" pageWidth="827" pageHeight="1169" math="0" shadow="0">
      <root>
        <mxCell id="0" />
        <mxCell id="1" parent="0" />
        <mxCell id="jREO1Mgu8HpOmWqfxhHD-1" value="" style="rounded=0;whiteSpace=wrap;html=1;" vertex="1" parent="1">
          <mxGeometry x="40" y="70" width="760" height="490" as="geometry" />
        </mxCell>
        <mxCell id="jREO1Mgu8HpOmWqfxhHD-2" value="&lt;font style=&quot;font-size: 16px;&quot;&gt;FitFood Hub&lt;/font&gt;" style="text;html=1;align=center;verticalAlign=middle;whiteSpace=wrap;rounded=0;" vertex="1" parent="1">
          <mxGeometry x="285" y="90" width="270" height="30" as="geometry" />
        </mxCell>
        <mxCell id="jREO1Mgu8HpOmWqfxhHD-3" value="Home &amp;nbsp; &amp;nbsp;Food Tracker &amp;nbsp; &amp;nbsp;Rezepte &amp;nbsp; &amp;nbsp;Mahlzeit&amp;nbsp;zusammenstellen" style="rounded=0;whiteSpace=wrap;html=1;" vertex="1" parent="1">
          <mxGeometry x="60" y="130" width="720" height="20" as="geometry" />
        </mxCell>
        <mxCell id="jREO1Mgu8HpOmWqfxhHD-7" value="Food Tracker Desktop PC" style="text;html=1;align=center;verticalAlign=middle;whiteSpace=wrap;rounded=0;" vertex="1" parent="1">
          <mxGeometry x="290" y="30" width="230" height="30" as="geometry" />
        </mxCell>
        <mxCell id="jREO1Mgu8HpOmWqfxhHD-8" value="" style="rounded=0;whiteSpace=wrap;html=1;" vertex="1" parent="1">
          <mxGeometry x="160" y="650" width="480" height="650" as="geometry" />
        </mxCell>
        <mxCell id="jREO1Mgu8HpOmWqfxhHD-9" value="&lt;span style=&quot;font-size: 16px;&quot;&gt;FitFood Hub&lt;/span&gt;" style="text;html=1;align=center;verticalAlign=middle;whiteSpace=wrap;rounded=0;" vertex="1" parent="1">
          <mxGeometry x="265" y="660" width="270" height="30" as="geometry" />
        </mxCell>
        <mxCell id="jREO1Mgu8HpOmWqfxhHD-10" value="" style="shape=image;html=1;verticalAlign=top;verticalLabelPosition=bottom;labelBackgroundColor=#ffffff;imageAspect=0;aspect=fixed;image=https://cdn4.iconfinder.com/data/icons/essential-app-2/16/burger-menu-more-panel-128.png" vertex="1" parent="1">
          <mxGeometry x="570" y="665.5" width="19" height="19" as="geometry" />
        </mxCell>
        <mxCell id="jREO1Mgu8HpOmWqfxhHD-14" value="Food Tracker Handy" style="text;html=1;align=center;verticalAlign=middle;whiteSpace=wrap;rounded=0;" vertex="1" parent="1">
          <mxGeometry x="299" y="610" width="230" height="30" as="geometry" />
        </mxCell>
        <mxCell id="jREO1Mgu8HpOmWqfxhHD-15" value="Logo" style="rounded=0;whiteSpace=wrap;html=1;" vertex="1" parent="1">
          <mxGeometry x="100" y="87.5" width="50" height="35" as="geometry" />
        </mxCell>
        <mxCell id="R3LBroi1dS7--RAR_du--1" value="" style="rounded=0;whiteSpace=wrap;html=1;" vertex="1" parent="1">
          <mxGeometry x="60" y="200" width="720" height="60" as="geometry" />
        </mxCell>
        <mxCell id="R3LBroi1dS7--RAR_du--3" value="Tag laden" style="rounded=0;whiteSpace=wrap;html=1;fillColor=#d5e8d4;strokeColor=#82b366;" vertex="1" parent="1">
          <mxGeometry x="324" y="210" width="90" height="40" as="geometry" />
        </mxCell>
        <mxCell id="R3LBroi1dS7--RAR_du--4" value="Tag löschen" style="rounded=0;whiteSpace=wrap;html=1;fillColor=#d5e8d4;strokeColor=#82b366;" vertex="1" parent="1">
          <mxGeometry x="529" y="210" width="111" height="40" as="geometry" />
        </mxCell>
        <mxCell id="R3LBroi1dS7--RAR_du--5" value="" style="html=1;verticalLabelPosition=bottom;align=center;labelBackgroundColor=#ffffff;verticalAlign=top;strokeWidth=2;strokeColor=#0080F0;shadow=0;dashed=0;shape=mxgraph.ios7.icons.calendar;" vertex="1" parent="1">
          <mxGeometry x="140" y="212.5" width="50" height="35" as="geometry" />
        </mxCell>
        <mxCell id="R3LBroi1dS7--RAR_du--6" value="&lt;p style=&quot;line-height: 100%;&quot;&gt;&lt;br&gt;&lt;/p&gt;" style="rounded=0;whiteSpace=wrap;html=1;" vertex="1" parent="1">
          <mxGeometry x="60" y="300" width="720" height="80" as="geometry" />
        </mxCell>
        <mxCell id="R3LBroi1dS7--RAR_du--7" value="Mahlzeit Tracken" style="text;html=1;align=center;verticalAlign=middle;whiteSpace=wrap;rounded=0;" vertex="1" parent="1">
          <mxGeometry x="375" y="300" width="95" height="30" as="geometry" />
        </mxCell>
        <mxCell id="R3LBroi1dS7--RAR_du--8" value="Suchfeld" style="rounded=0;whiteSpace=wrap;html=1;" vertex="1" parent="1">
          <mxGeometry x="190" y="335" width="180" height="20" as="geometry" />
        </mxCell>
        <mxCell id="R3LBroi1dS7--RAR_du--9" value="Suche" style="rounded=0;whiteSpace=wrap;html=1;fillColor=#d5e8d4;strokeColor=#82b366;" vertex="1" parent="1">
          <mxGeometry x="450" y="330" width="90" height="30" as="geometry" />
        </mxCell>
        <mxCell id="R3LBroi1dS7--RAR_du--10" value="" style="rounded=0;whiteSpace=wrap;html=1;" vertex="1" parent="1">
          <mxGeometry x="60" y="410" width="720" height="130" as="geometry" />
        </mxCell>
        <mxCell id="R3LBroi1dS7--RAR_du--11" value="Übersicht" style="text;html=1;align=center;verticalAlign=middle;whiteSpace=wrap;rounded=0;" vertex="1" parent="1">
          <mxGeometry x="390" y="410" width="60" height="30" as="geometry" />
        </mxCell>
        <mxCell id="R3LBroi1dS7--RAR_du--12" value="Frühstück" style="text;html=1;align=center;verticalAlign=middle;whiteSpace=wrap;rounded=0;" vertex="1" parent="1">
          <mxGeometry x="100" y="440" width="60" height="30" as="geometry" />
        </mxCell>
        <mxCell id="R3LBroi1dS7--RAR_du--13" value="Mittag" style="text;html=1;align=center;verticalAlign=middle;whiteSpace=wrap;rounded=0;" vertex="1" parent="1">
          <mxGeometry x="285" y="440" width="60" height="30" as="geometry" />
        </mxCell>
        <mxCell id="R3LBroi1dS7--RAR_du--14" value="Abend" style="text;html=1;align=center;verticalAlign=middle;whiteSpace=wrap;rounded=0;" vertex="1" parent="1">
          <mxGeometry x="480" y="440" width="60" height="30" as="geometry" />
        </mxCell>
        <mxCell id="R3LBroi1dS7--RAR_du--15" value="Snack" style="text;html=1;align=center;verticalAlign=middle;whiteSpace=wrap;rounded=0;" vertex="1" parent="1">
          <mxGeometry x="640" y="440" width="60" height="30" as="geometry" />
        </mxCell>
        <mxCell id="R3LBroi1dS7--RAR_du--16" value="Nährwerte" style="rounded=0;whiteSpace=wrap;html=1;" vertex="1" parent="1">
          <mxGeometry x="70" y="470" width="120" height="60" as="geometry" />
        </mxCell>
        <mxCell id="R3LBroi1dS7--RAR_du--17" value="Nährwerte" style="rounded=0;whiteSpace=wrap;html=1;" vertex="1" parent="1">
          <mxGeometry x="255" y="470" width="120" height="60" as="geometry" />
        </mxCell>
        <mxCell id="R3LBroi1dS7--RAR_du--18" value="Nährwerte" style="rounded=0;whiteSpace=wrap;html=1;" vertex="1" parent="1">
          <mxGeometry x="450" y="470" width="120" height="60" as="geometry" />
        </mxCell>
        <mxCell id="R3LBroi1dS7--RAR_du--19" value="Nährwerte" style="rounded=0;whiteSpace=wrap;html=1;" vertex="1" parent="1">
          <mxGeometry x="630" y="470" width="120" height="60" as="geometry" />
        </mxCell>
        <mxCell id="R3LBroi1dS7--RAR_du--20" value="Logo" style="rounded=0;whiteSpace=wrap;html=1;" vertex="1" parent="1">
          <mxGeometry x="205" y="665.5" width="50" height="35" as="geometry" />
        </mxCell>
        <mxCell id="R3LBroi1dS7--RAR_du--21" value="" style="rounded=0;whiteSpace=wrap;html=1;" vertex="1" parent="1">
          <mxGeometry x="180" y="730" width="440" height="100" as="geometry" />
        </mxCell>
        <mxCell id="R3LBroi1dS7--RAR_du--22" value="Tag laden" style="rounded=0;whiteSpace=wrap;html=1;fillColor=#d5e8d4;strokeColor=#82b366;" vertex="1" parent="1">
          <mxGeometry x="360" y="772.5" width="75" height="20" as="geometry" />
        </mxCell>
        <mxCell id="R3LBroi1dS7--RAR_du--23" value="Tag löschen" style="rounded=0;whiteSpace=wrap;html=1;fillColor=#d5e8d4;strokeColor=#82b366;" vertex="1" parent="1">
          <mxGeometry x="359.5" y="800" width="81" height="20" as="geometry" />
        </mxCell>
        <mxCell id="R3LBroi1dS7--RAR_du--24" value="" style="html=1;verticalLabelPosition=bottom;align=center;labelBackgroundColor=#ffffff;verticalAlign=top;strokeWidth=2;strokeColor=#0080F0;shadow=0;dashed=0;shape=mxgraph.ios7.icons.calendar;" vertex="1" parent="1">
          <mxGeometry x="380" y="740" width="30" height="20" as="geometry" />
        </mxCell>
        <mxCell id="R3LBroi1dS7--RAR_du--25" value="&lt;p style=&quot;line-height: 100%;&quot;&gt;&lt;br&gt;&lt;/p&gt;" style="rounded=0;whiteSpace=wrap;html=1;" vertex="1" parent="1">
          <mxGeometry x="180" y="860" width="440" height="90" as="geometry" />
        </mxCell>
        <mxCell id="R3LBroi1dS7--RAR_du--26" value="Mahlzeit Tracken" style="text;html=1;align=center;verticalAlign=middle;whiteSpace=wrap;rounded=0;" vertex="1" parent="1">
          <mxGeometry x="355" y="860" width="95" height="30" as="geometry" />
        </mxCell>
        <mxCell id="R3LBroi1dS7--RAR_du--27" value="Suchfeld" style="rounded=0;whiteSpace=wrap;html=1;" vertex="1" parent="1">
          <mxGeometry x="310" y="890" width="180" height="20" as="geometry" />
        </mxCell>
        <mxCell id="R3LBroi1dS7--RAR_du--28" value="Suche" style="rounded=0;whiteSpace=wrap;html=1;fillColor=#d5e8d4;strokeColor=#82b366;" vertex="1" parent="1">
          <mxGeometry x="362.5" y="920" width="77.5" height="20" as="geometry" />
        </mxCell>
        <mxCell id="R3LBroi1dS7--RAR_du--29" value="" style="rounded=0;whiteSpace=wrap;html=1;" vertex="1" parent="1">
          <mxGeometry x="180" y="970" width="440" height="310" as="geometry" />
        </mxCell>
        <mxCell id="R3LBroi1dS7--RAR_du--30" value="Übersicht" style="text;html=1;align=center;verticalAlign=middle;whiteSpace=wrap;rounded=0;" vertex="1" parent="1">
          <mxGeometry x="365" y="970" width="60" height="30" as="geometry" />
        </mxCell>
        <mxCell id="R3LBroi1dS7--RAR_du--31" value="Frühstück" style="text;html=1;align=center;verticalAlign=middle;whiteSpace=wrap;rounded=0;" vertex="1" parent="1">
          <mxGeometry x="365" y="1000" width="60" height="30" as="geometry" />
        </mxCell>
        <mxCell id="R3LBroi1dS7--RAR_du--32" value="Mittag" style="text;html=1;align=center;verticalAlign=middle;whiteSpace=wrap;rounded=0;" vertex="1" parent="1">
          <mxGeometry x="365" y="1070" width="60" height="30" as="geometry" />
        </mxCell>
        <mxCell id="R3LBroi1dS7--RAR_du--34" value="Snack" style="text;html=1;align=center;verticalAlign=middle;whiteSpace=wrap;rounded=0;" vertex="1" parent="1">
          <mxGeometry x="370" y="1199" width="60" height="30" as="geometry" />
        </mxCell>
        <mxCell id="R3LBroi1dS7--RAR_du--36" value="Nährwerte" style="rounded=0;whiteSpace=wrap;html=1;" vertex="1" parent="1">
          <mxGeometry x="362.5" y="1030" width="65" height="30" as="geometry" />
        </mxCell>
        <mxCell id="R3LBroi1dS7--RAR_du--40" value="Nährwerte" style="rounded=0;whiteSpace=wrap;html=1;" vertex="1" parent="1">
          <mxGeometry x="362.5" y="1100" width="65" height="30" as="geometry" />
        </mxCell>
        <mxCell id="R3LBroi1dS7--RAR_du--41" value="Abend" style="text;html=1;align=center;verticalAlign=middle;whiteSpace=wrap;rounded=0;" vertex="1" parent="1">
          <mxGeometry x="365" y="1139" width="60" height="30" as="geometry" />
        </mxCell>
        <mxCell id="R3LBroi1dS7--RAR_du--42" value="Nährwerte" style="rounded=0;whiteSpace=wrap;html=1;" vertex="1" parent="1">
          <mxGeometry x="360" y="1169" width="65" height="30" as="geometry" />
        </mxCell>
        <mxCell id="R3LBroi1dS7--RAR_du--43" value="Nährwerte" style="rounded=0;whiteSpace=wrap;html=1;" vertex="1" parent="1">
          <mxGeometry x="360" y="1229" width="65" height="30" as="geometry" />
        </mxCell>
      </root>
    </mxGraphModel>
  </diagram>
  <diagram id="70GW-1_SHxjeuJASHkbn" name="Seite-3">
    <mxGraphModel dx="954" dy="552" grid="1" gridSize="10" guides="1" tooltips="1" connect="1" arrows="1" fold="1" page="1" pageScale="1" pageWidth="827" pageHeight="1169" math="0" shadow="0">
      <root>
        <mxCell id="0" />
        <mxCell id="1" parent="0" />
        <mxCell id="NJ-S19Meqi8CDKM2HOOC-1" value="" style="rounded=0;whiteSpace=wrap;html=1;" vertex="1" parent="1">
          <mxGeometry x="40" y="70" width="760" height="490" as="geometry" />
        </mxCell>
        <mxCell id="NJ-S19Meqi8CDKM2HOOC-2" value="&lt;font style=&quot;font-size: 16px;&quot;&gt;FitFood Hub&lt;/font&gt;" style="text;html=1;align=center;verticalAlign=middle;whiteSpace=wrap;rounded=0;" vertex="1" parent="1">
          <mxGeometry x="285" y="90" width="270" height="30" as="geometry" />
        </mxCell>
        <mxCell id="NJ-S19Meqi8CDKM2HOOC-3" value="Home &amp;nbsp; &amp;nbsp;Food Tracker &amp;nbsp; &amp;nbsp;Rezepte &amp;nbsp; &amp;nbsp;Mahlzeit&amp;nbsp;zusammenstellen" style="rounded=0;whiteSpace=wrap;html=1;" vertex="1" parent="1">
          <mxGeometry x="60" y="130" width="720" height="20" as="geometry" />
        </mxCell>
        <mxCell id="NJ-S19Meqi8CDKM2HOOC-4" value="Suche Food Tracker&amp;nbsp;Desktop PC" style="text;html=1;align=center;verticalAlign=middle;whiteSpace=wrap;rounded=0;" vertex="1" parent="1">
          <mxGeometry x="290" y="30" width="230" height="30" as="geometry" />
        </mxCell>
        <mxCell id="NJ-S19Meqi8CDKM2HOOC-5" value="" style="rounded=0;whiteSpace=wrap;html=1;" vertex="1" parent="1">
          <mxGeometry x="160" y="650" width="480" height="650" as="geometry" />
        </mxCell>
        <mxCell id="NJ-S19Meqi8CDKM2HOOC-6" value="&lt;span style=&quot;font-size: 16px;&quot;&gt;FitFood Hub&lt;/span&gt;" style="text;html=1;align=center;verticalAlign=middle;whiteSpace=wrap;rounded=0;" vertex="1" parent="1">
          <mxGeometry x="265" y="660" width="270" height="30" as="geometry" />
        </mxCell>
        <mxCell id="NJ-S19Meqi8CDKM2HOOC-7" value="" style="shape=image;html=1;verticalAlign=top;verticalLabelPosition=bottom;labelBackgroundColor=#ffffff;imageAspect=0;aspect=fixed;image=https://cdn4.iconfinder.com/data/icons/essential-app-2/16/burger-menu-more-panel-128.png" vertex="1" parent="1">
          <mxGeometry x="570" y="665.5" width="19" height="19" as="geometry" />
        </mxCell>
        <mxCell id="NJ-S19Meqi8CDKM2HOOC-8" value="Suche Food Tracker Handy" style="text;html=1;align=center;verticalAlign=middle;whiteSpace=wrap;rounded=0;" vertex="1" parent="1">
          <mxGeometry x="299" y="610" width="230" height="30" as="geometry" />
        </mxCell>
        <mxCell id="NJ-S19Meqi8CDKM2HOOC-9" value="Logo" style="rounded=0;whiteSpace=wrap;html=1;" vertex="1" parent="1">
          <mxGeometry x="100" y="87.5" width="50" height="35" as="geometry" />
        </mxCell>
        <mxCell id="NJ-S19Meqi8CDKM2HOOC-10" value="" style="rounded=0;whiteSpace=wrap;html=1;" vertex="1" parent="1">
          <mxGeometry x="60" y="200" width="720" height="330" as="geometry" />
        </mxCell>
        <mxCell id="NJ-S19Meqi8CDKM2HOOC-12" value="Suche" style="rounded=0;whiteSpace=wrap;html=1;fillColor=#d5e8d4;strokeColor=#82b366;" vertex="1" parent="1">
          <mxGeometry x="465.5" y="265" width="91" height="30" as="geometry" />
        </mxCell>
        <mxCell id="NJ-S19Meqi8CDKM2HOOC-28" value="Logo" style="rounded=0;whiteSpace=wrap;html=1;" vertex="1" parent="1">
          <mxGeometry x="205" y="665.5" width="50" height="35" as="geometry" />
        </mxCell>
        <mxCell id="NJ-S19Meqi8CDKM2HOOC-47" value="&quot;Suche&quot;" style="rounded=0;whiteSpace=wrap;html=1;" vertex="1" parent="1">
          <mxGeometry x="285" y="260" width="125" height="40" as="geometry" />
        </mxCell>
        <mxCell id="NJ-S19Meqi8CDKM2HOOC-48" value="" style="rounded=0;whiteSpace=wrap;html=1;" vertex="1" parent="1">
          <mxGeometry x="100" y="330" width="140" height="175" as="geometry" />
        </mxCell>
        <mxCell id="NJ-S19Meqi8CDKM2HOOC-49" value="Bild" style="rounded=0;whiteSpace=wrap;html=1;" vertex="1" parent="1">
          <mxGeometry x="110" y="387.5" width="120" height="60" as="geometry" />
        </mxCell>
        <mxCell id="NJ-S19Meqi8CDKM2HOOC-50" value="Details" style="rounded=0;whiteSpace=wrap;html=1;fillColor=#d5e8d4;strokeColor=#82b366;" vertex="1" parent="1">
          <mxGeometry x="124.5" y="465" width="91" height="30" as="geometry" />
        </mxCell>
        <mxCell id="NJ-S19Meqi8CDKM2HOOC-51" value="Zutat" style="text;html=1;align=center;verticalAlign=middle;whiteSpace=wrap;rounded=0;" vertex="1" parent="1">
          <mxGeometry x="140" y="345" width="60" height="30" as="geometry" />
        </mxCell>
        <mxCell id="NJ-S19Meqi8CDKM2HOOC-52" value="" style="rounded=0;whiteSpace=wrap;html=1;" vertex="1" parent="1">
          <mxGeometry x="350" y="330" width="140" height="175" as="geometry" />
        </mxCell>
        <mxCell id="NJ-S19Meqi8CDKM2HOOC-53" value="Bild" style="rounded=0;whiteSpace=wrap;html=1;" vertex="1" parent="1">
          <mxGeometry x="360" y="387.5" width="120" height="60" as="geometry" />
        </mxCell>
        <mxCell id="NJ-S19Meqi8CDKM2HOOC-54" value="Details" style="rounded=0;whiteSpace=wrap;html=1;fillColor=#d5e8d4;strokeColor=#82b366;" vertex="1" parent="1">
          <mxGeometry x="374.5" y="465" width="91" height="30" as="geometry" />
        </mxCell>
        <mxCell id="NJ-S19Meqi8CDKM2HOOC-55" value="Zutat" style="text;html=1;align=center;verticalAlign=middle;whiteSpace=wrap;rounded=0;" vertex="1" parent="1">
          <mxGeometry x="390" y="345" width="60" height="30" as="geometry" />
        </mxCell>
        <mxCell id="NJ-S19Meqi8CDKM2HOOC-56" value="" style="rounded=0;whiteSpace=wrap;html=1;" vertex="1" parent="1">
          <mxGeometry x="589" y="330" width="140" height="175" as="geometry" />
        </mxCell>
        <mxCell id="NJ-S19Meqi8CDKM2HOOC-57" value="Bild" style="rounded=0;whiteSpace=wrap;html=1;" vertex="1" parent="1">
          <mxGeometry x="599" y="387.5" width="120" height="60" as="geometry" />
        </mxCell>
        <mxCell id="NJ-S19Meqi8CDKM2HOOC-58" value="Details" style="rounded=0;whiteSpace=wrap;html=1;fillColor=#d5e8d4;strokeColor=#82b366;" vertex="1" parent="1">
          <mxGeometry x="613.5" y="465" width="91" height="30" as="geometry" />
        </mxCell>
        <mxCell id="NJ-S19Meqi8CDKM2HOOC-59" value="Zutat" style="text;html=1;align=center;verticalAlign=middle;whiteSpace=wrap;rounded=0;" vertex="1" parent="1">
          <mxGeometry x="629" y="345" width="60" height="30" as="geometry" />
        </mxCell>
        <mxCell id="NJ-S19Meqi8CDKM2HOOC-60" value="Mahlzeiten Tacken" style="text;html=1;align=center;verticalAlign=middle;whiteSpace=wrap;rounded=0;" vertex="1" parent="1">
          <mxGeometry x="359.5" y="210" width="127.5" height="30" as="geometry" />
        </mxCell>
        <mxCell id="NJ-S19Meqi8CDKM2HOOC-61" value="Suche" style="rounded=0;whiteSpace=wrap;html=1;fillColor=#d5e8d4;strokeColor=#82b366;" vertex="1" parent="1">
          <mxGeometry x="435.5" y="775" width="91" height="30" as="geometry" />
        </mxCell>
        <mxCell id="NJ-S19Meqi8CDKM2HOOC-62" value="&quot;Suche&quot;" style="rounded=0;whiteSpace=wrap;html=1;" vertex="1" parent="1">
          <mxGeometry x="255" y="770" width="125" height="40" as="geometry" />
        </mxCell>
        <mxCell id="NJ-S19Meqi8CDKM2HOOC-63" value="Mahlzeiten Tacken" style="text;html=1;align=center;verticalAlign=middle;whiteSpace=wrap;rounded=0;" vertex="1" parent="1">
          <mxGeometry x="329.5" y="720" width="127.5" height="30" as="geometry" />
        </mxCell>
        <mxCell id="NJ-S19Meqi8CDKM2HOOC-64" value="" style="rounded=0;whiteSpace=wrap;html=1;" vertex="1" parent="1">
          <mxGeometry x="330" y="850" width="140" height="130" as="geometry" />
        </mxCell>
        <mxCell id="NJ-S19Meqi8CDKM2HOOC-65" value="Bild" style="rounded=0;whiteSpace=wrap;html=1;" vertex="1" parent="1">
          <mxGeometry x="350.5" y="890" width="100" height="32.5" as="geometry" />
        </mxCell>
        <mxCell id="NJ-S19Meqi8CDKM2HOOC-66" value="Details" style="rounded=0;whiteSpace=wrap;html=1;fillColor=#d5e8d4;strokeColor=#82b366;" vertex="1" parent="1">
          <mxGeometry x="357.25" y="940" width="85.5" height="15" as="geometry" />
        </mxCell>
        <mxCell id="NJ-S19Meqi8CDKM2HOOC-67" value="Zutat" style="text;html=1;align=center;verticalAlign=middle;whiteSpace=wrap;rounded=0;" vertex="1" parent="1">
          <mxGeometry x="385" y="865" width="40" height="15" as="geometry" />
        </mxCell>
        <mxCell id="NJ-S19Meqi8CDKM2HOOC-72" value="" style="rounded=0;whiteSpace=wrap;html=1;" vertex="1" parent="1">
          <mxGeometry x="330" y="1000" width="140" height="130" as="geometry" />
        </mxCell>
        <mxCell id="NJ-S19Meqi8CDKM2HOOC-73" value="Bild" style="rounded=0;whiteSpace=wrap;html=1;" vertex="1" parent="1">
          <mxGeometry x="350.5" y="1040" width="100" height="32.5" as="geometry" />
        </mxCell>
        <mxCell id="NJ-S19Meqi8CDKM2HOOC-74" value="Details" style="rounded=0;whiteSpace=wrap;html=1;fillColor=#d5e8d4;strokeColor=#82b366;" vertex="1" parent="1">
          <mxGeometry x="357.25" y="1090" width="85.5" height="15" as="geometry" />
        </mxCell>
        <mxCell id="NJ-S19Meqi8CDKM2HOOC-75" value="Zutat" style="text;html=1;align=center;verticalAlign=middle;whiteSpace=wrap;rounded=0;" vertex="1" parent="1">
          <mxGeometry x="385" y="1015" width="40" height="15" as="geometry" />
        </mxCell>
        <mxCell id="NJ-S19Meqi8CDKM2HOOC-76" value="" style="rounded=0;whiteSpace=wrap;html=1;" vertex="1" parent="1">
          <mxGeometry x="329.5" y="1150" width="140" height="130" as="geometry" />
        </mxCell>
        <mxCell id="NJ-S19Meqi8CDKM2HOOC-77" value="Bild" style="rounded=0;whiteSpace=wrap;html=1;" vertex="1" parent="1">
          <mxGeometry x="350" y="1190" width="100" height="32.5" as="geometry" />
        </mxCell>
        <mxCell id="NJ-S19Meqi8CDKM2HOOC-78" value="Details" style="rounded=0;whiteSpace=wrap;html=1;fillColor=#d5e8d4;strokeColor=#82b366;" vertex="1" parent="1">
          <mxGeometry x="356.75" y="1240" width="85.5" height="15" as="geometry" />
        </mxCell>
        <mxCell id="NJ-S19Meqi8CDKM2HOOC-79" value="Zutat" style="text;html=1;align=center;verticalAlign=middle;whiteSpace=wrap;rounded=0;" vertex="1" parent="1">
          <mxGeometry x="384.5" y="1165" width="40" height="15" as="geometry" />
        </mxCell>
      </root>
    </mxGraphModel>
  </diagram>
  <diagram id="gTUTIPOwpOnblwaWaHbe" name="Seite-4">
    <mxGraphModel dx="954" dy="552" grid="1" gridSize="10" guides="1" tooltips="1" connect="1" arrows="1" fold="1" page="1" pageScale="1" pageWidth="827" pageHeight="1169" math="0" shadow="0">
      <root>
        <mxCell id="0" />
        <mxCell id="1" parent="0" />
        <mxCell id="1O_efnisdTQrW3RV0gC--1" value="" style="rounded=0;whiteSpace=wrap;html=1;" vertex="1" parent="1">
          <mxGeometry x="40" y="70" width="760" height="540" as="geometry" />
        </mxCell>
        <mxCell id="1O_efnisdTQrW3RV0gC--2" value="&lt;font style=&quot;font-size: 16px;&quot;&gt;FitFood Hub&lt;/font&gt;" style="text;html=1;align=center;verticalAlign=middle;whiteSpace=wrap;rounded=0;" vertex="1" parent="1">
          <mxGeometry x="285" y="90" width="270" height="30" as="geometry" />
        </mxCell>
        <mxCell id="1O_efnisdTQrW3RV0gC--3" value="Home &amp;nbsp; &amp;nbsp;Food Tracker &amp;nbsp; &amp;nbsp;Rezepte &amp;nbsp; &amp;nbsp;Mahlzeit&amp;nbsp;zusammenstellen" style="rounded=0;whiteSpace=wrap;html=1;" vertex="1" parent="1">
          <mxGeometry x="60" y="130" width="720" height="20" as="geometry" />
        </mxCell>
        <mxCell id="1O_efnisdTQrW3RV0gC--4" value="Essen hinzufügen Food Tracker&amp;nbsp;Desktop PC" style="text;html=1;align=center;verticalAlign=middle;whiteSpace=wrap;rounded=0;" vertex="1" parent="1">
          <mxGeometry x="290" y="30" width="280" height="30" as="geometry" />
        </mxCell>
        <mxCell id="1O_efnisdTQrW3RV0gC--5" value="" style="rounded=0;whiteSpace=wrap;html=1;" vertex="1" parent="1">
          <mxGeometry x="160" y="740" width="480" height="790" as="geometry" />
        </mxCell>
        <mxCell id="1O_efnisdTQrW3RV0gC--6" value="&lt;span style=&quot;font-size: 16px;&quot;&gt;FitFood Hub&lt;/span&gt;" style="text;html=1;align=center;verticalAlign=middle;whiteSpace=wrap;rounded=0;" vertex="1" parent="1">
          <mxGeometry x="265" y="750" width="270" height="30" as="geometry" />
        </mxCell>
        <mxCell id="1O_efnisdTQrW3RV0gC--7" value="" style="shape=image;html=1;verticalAlign=top;verticalLabelPosition=bottom;labelBackgroundColor=#ffffff;imageAspect=0;aspect=fixed;image=https://cdn4.iconfinder.com/data/icons/essential-app-2/16/burger-menu-more-panel-128.png" vertex="1" parent="1">
          <mxGeometry x="570" y="755.5" width="19" height="19" as="geometry" />
        </mxCell>
        <mxCell id="1O_efnisdTQrW3RV0gC--8" value="Essen hinzufügen&amp;nbsp;&amp;nbsp;Food Tracker Handy" style="text;html=1;align=center;verticalAlign=middle;whiteSpace=wrap;rounded=0;" vertex="1" parent="1">
          <mxGeometry x="289.5" y="710" width="230" height="30" as="geometry" />
        </mxCell>
        <mxCell id="1O_efnisdTQrW3RV0gC--9" value="Logo" style="rounded=0;whiteSpace=wrap;html=1;" vertex="1" parent="1">
          <mxGeometry x="100" y="87.5" width="50" height="35" as="geometry" />
        </mxCell>
        <mxCell id="1O_efnisdTQrW3RV0gC--12" value="Logo" style="rounded=0;whiteSpace=wrap;html=1;" vertex="1" parent="1">
          <mxGeometry x="205" y="755.5" width="50" height="35" as="geometry" />
        </mxCell>
        <mxCell id="ooVSpyN7eJ0Efm36eUNj-1" value="" style="rounded=0;whiteSpace=wrap;html=1;" vertex="1" parent="1">
          <mxGeometry x="60" y="180" width="720" height="60" as="geometry" />
        </mxCell>
        <mxCell id="ooVSpyN7eJ0Efm36eUNj-2" value="Tag laden" style="rounded=0;whiteSpace=wrap;html=1;fillColor=#d5e8d4;strokeColor=#82b366;" vertex="1" parent="1">
          <mxGeometry x="324" y="190" width="90" height="40" as="geometry" />
        </mxCell>
        <mxCell id="ooVSpyN7eJ0Efm36eUNj-3" value="Tag löschen" style="rounded=0;whiteSpace=wrap;html=1;fillColor=#d5e8d4;strokeColor=#82b366;" vertex="1" parent="1">
          <mxGeometry x="529" y="190" width="111" height="40" as="geometry" />
        </mxCell>
        <mxCell id="ooVSpyN7eJ0Efm36eUNj-4" value="" style="html=1;verticalLabelPosition=bottom;align=center;labelBackgroundColor=#ffffff;verticalAlign=top;strokeWidth=2;strokeColor=#0080F0;shadow=0;dashed=0;shape=mxgraph.ios7.icons.calendar;" vertex="1" parent="1">
          <mxGeometry x="140" y="192.5" width="50" height="35" as="geometry" />
        </mxCell>
        <mxCell id="ooVSpyN7eJ0Efm36eUNj-5" value="" style="rounded=0;whiteSpace=wrap;html=1;" vertex="1" parent="1">
          <mxGeometry x="60" y="270" width="720" height="170" as="geometry" />
        </mxCell>
        <mxCell id="Kk5nbJhUOZNJnwy-QjPI-1" value="" style="rounded=0;whiteSpace=wrap;html=1;" vertex="1" parent="1">
          <mxGeometry x="60" y="455" width="720" height="130" as="geometry" />
        </mxCell>
        <mxCell id="Kk5nbJhUOZNJnwy-QjPI-2" value="Übersicht" style="text;html=1;align=center;verticalAlign=middle;whiteSpace=wrap;rounded=0;" vertex="1" parent="1">
          <mxGeometry x="390" y="455" width="60" height="30" as="geometry" />
        </mxCell>
        <mxCell id="Kk5nbJhUOZNJnwy-QjPI-3" value="Frühstück" style="text;html=1;align=center;verticalAlign=middle;whiteSpace=wrap;rounded=0;" vertex="1" parent="1">
          <mxGeometry x="100" y="485" width="60" height="30" as="geometry" />
        </mxCell>
        <mxCell id="Kk5nbJhUOZNJnwy-QjPI-4" value="Mittag" style="text;html=1;align=center;verticalAlign=middle;whiteSpace=wrap;rounded=0;" vertex="1" parent="1">
          <mxGeometry x="285" y="485" width="60" height="30" as="geometry" />
        </mxCell>
        <mxCell id="Kk5nbJhUOZNJnwy-QjPI-5" value="Abend" style="text;html=1;align=center;verticalAlign=middle;whiteSpace=wrap;rounded=0;" vertex="1" parent="1">
          <mxGeometry x="480" y="485" width="60" height="30" as="geometry" />
        </mxCell>
        <mxCell id="Kk5nbJhUOZNJnwy-QjPI-6" value="Snack" style="text;html=1;align=center;verticalAlign=middle;whiteSpace=wrap;rounded=0;" vertex="1" parent="1">
          <mxGeometry x="640" y="485" width="60" height="30" as="geometry" />
        </mxCell>
        <mxCell id="Kk5nbJhUOZNJnwy-QjPI-7" value="Nährwerte" style="rounded=0;whiteSpace=wrap;html=1;" vertex="1" parent="1">
          <mxGeometry x="70" y="515" width="120" height="60" as="geometry" />
        </mxCell>
        <mxCell id="Kk5nbJhUOZNJnwy-QjPI-8" value="Nährwerte" style="rounded=0;whiteSpace=wrap;html=1;" vertex="1" parent="1">
          <mxGeometry x="255" y="515" width="120" height="60" as="geometry" />
        </mxCell>
        <mxCell id="Kk5nbJhUOZNJnwy-QjPI-9" value="Nährwerte" style="rounded=0;whiteSpace=wrap;html=1;" vertex="1" parent="1">
          <mxGeometry x="450" y="515" width="120" height="60" as="geometry" />
        </mxCell>
        <mxCell id="Kk5nbJhUOZNJnwy-QjPI-10" value="Nährwerte" style="rounded=0;whiteSpace=wrap;html=1;" vertex="1" parent="1">
          <mxGeometry x="630" y="515" width="120" height="60" as="geometry" />
        </mxCell>
        <mxCell id="Kk5nbJhUOZNJnwy-QjPI-11" value="Produktdetails" style="text;html=1;align=center;verticalAlign=middle;whiteSpace=wrap;rounded=0;" vertex="1" parent="1">
          <mxGeometry x="369.5" y="280" width="60" height="30" as="geometry" />
        </mxCell>
        <mxCell id="Kk5nbJhUOZNJnwy-QjPI-12" value="Bild" style="rounded=0;whiteSpace=wrap;html=1;" vertex="1" parent="1">
          <mxGeometry x="350" y="320" width="110" height="40" as="geometry" />
        </mxCell>
        <mxCell id="Kk5nbJhUOZNJnwy-QjPI-14" value="100" style="rounded=0;whiteSpace=wrap;html=1;" vertex="1" parent="1">
          <mxGeometry x="140" y="390" width="90" height="40" as="geometry" />
        </mxCell>
        <mxCell id="Kk5nbJhUOZNJnwy-QjPI-15" value="Menge" style="text;html=1;align=center;verticalAlign=middle;whiteSpace=wrap;rounded=0;" vertex="1" parent="1">
          <mxGeometry x="70" y="395" width="60" height="30" as="geometry" />
        </mxCell>
        <mxCell id="Kk5nbJhUOZNJnwy-QjPI-16" value="Frühstück" style="rounded=0;whiteSpace=wrap;html=1;" vertex="1" parent="1">
          <mxGeometry x="324" y="390" width="106" height="40" as="geometry" />
        </mxCell>
        <mxCell id="Kk5nbJhUOZNJnwy-QjPI-17" value="Kategorie" style="text;html=1;align=center;verticalAlign=middle;whiteSpace=wrap;rounded=0;" vertex="1" parent="1">
          <mxGeometry x="254" y="395" width="60" height="30" as="geometry" />
        </mxCell>
        <mxCell id="Kk5nbJhUOZNJnwy-QjPI-18" value="" style="triangle;whiteSpace=wrap;html=1;rotation=90;" vertex="1" parent="1">
          <mxGeometry x="408.25" y="399.75" width="15.5" height="21" as="geometry" />
        </mxCell>
        <mxCell id="Kk5nbJhUOZNJnwy-QjPI-20" value="Hinzufügen&lt;span style=&quot;caret-color: rgba(0, 0, 0, 0); color: rgba(0, 0, 0, 0); font-family: monospace; font-size: 0px; text-align: start; white-space: nowrap;&quot;&gt;%3CmxGraphModel%3E%3Croot%3E%3CmxCell%20id%3D%220%22%2F%3E%3CmxCell%20id%3D%221%22%20parent%3D%220%22%2F%3E%3CmxCell%20id%3D%222%22%20value%3D%22Tag%20l%C3%B6schen%22%20style%3D%22rounded%3D0%3BwhiteSpace%3Dwrap%3Bhtml%3D1%3BfillColor%3D%23d5e8d4%3BstrokeColor%3D%2382b366%3B%22%20vertex%3D%221%22%20parent%3D%221%22%3E%3CmxGeometry%20x%3D%22529%22%20y%3D%22190%22%20width%3D%22111%22%20height%3D%2240%22%20as%3D%22geometry%22%2F%3E%3C%2FmxCell%3E%3C%2Froot%3E%3C%2FmxGraphModel%3E&lt;/span&gt;" style="rounded=0;whiteSpace=wrap;html=1;fillColor=#d5e8d4;strokeColor=#82b366;" vertex="1" parent="1">
          <mxGeometry x="459" y="390" width="111" height="40" as="geometry" />
        </mxCell>
        <mxCell id="Kk5nbJhUOZNJnwy-QjPI-21" value="Zurück zur Suche" style="rounded=0;whiteSpace=wrap;html=1;fillColor=#d5e8d4;strokeColor=#82b366;" vertex="1" parent="1">
          <mxGeometry x="600" y="390" width="111" height="40" as="geometry" />
        </mxCell>
        <mxCell id="OMAe1CCSfcrOIt5mbPMs-1" value="" style="rounded=0;whiteSpace=wrap;html=1;" vertex="1" parent="1">
          <mxGeometry x="180" y="810" width="440" height="100" as="geometry" />
        </mxCell>
        <mxCell id="OMAe1CCSfcrOIt5mbPMs-2" value="Tag laden" style="rounded=0;whiteSpace=wrap;html=1;fillColor=#d5e8d4;strokeColor=#82b366;" vertex="1" parent="1">
          <mxGeometry x="360" y="852.5" width="75" height="20" as="geometry" />
        </mxCell>
        <mxCell id="OMAe1CCSfcrOIt5mbPMs-3" value="Tag löschen" style="rounded=0;whiteSpace=wrap;html=1;fillColor=#d5e8d4;strokeColor=#82b366;" vertex="1" parent="1">
          <mxGeometry x="359.5" y="880" width="81" height="20" as="geometry" />
        </mxCell>
        <mxCell id="OMAe1CCSfcrOIt5mbPMs-4" value="" style="html=1;verticalLabelPosition=bottom;align=center;labelBackgroundColor=#ffffff;verticalAlign=top;strokeWidth=2;strokeColor=#0080F0;shadow=0;dashed=0;shape=mxgraph.ios7.icons.calendar;" vertex="1" parent="1">
          <mxGeometry x="380" y="820" width="30" height="20" as="geometry" />
        </mxCell>
        <mxCell id="OMAe1CCSfcrOIt5mbPMs-5" value="" style="rounded=0;whiteSpace=wrap;html=1;" vertex="1" parent="1">
          <mxGeometry x="180" y="1200" width="440" height="310" as="geometry" />
        </mxCell>
        <mxCell id="OMAe1CCSfcrOIt5mbPMs-6" value="Übersicht" style="text;html=1;align=center;verticalAlign=middle;whiteSpace=wrap;rounded=0;" vertex="1" parent="1">
          <mxGeometry x="365" y="1200" width="60" height="30" as="geometry" />
        </mxCell>
        <mxCell id="OMAe1CCSfcrOIt5mbPMs-7" value="Frühstück" style="text;html=1;align=center;verticalAlign=middle;whiteSpace=wrap;rounded=0;" vertex="1" parent="1">
          <mxGeometry x="365" y="1230" width="60" height="30" as="geometry" />
        </mxCell>
        <mxCell id="OMAe1CCSfcrOIt5mbPMs-8" value="Mittag" style="text;html=1;align=center;verticalAlign=middle;whiteSpace=wrap;rounded=0;" vertex="1" parent="1">
          <mxGeometry x="365" y="1300" width="60" height="30" as="geometry" />
        </mxCell>
        <mxCell id="OMAe1CCSfcrOIt5mbPMs-9" value="Snack" style="text;html=1;align=center;verticalAlign=middle;whiteSpace=wrap;rounded=0;" vertex="1" parent="1">
          <mxGeometry x="370" y="1429" width="60" height="30" as="geometry" />
        </mxCell>
        <mxCell id="OMAe1CCSfcrOIt5mbPMs-10" value="Nährwerte" style="rounded=0;whiteSpace=wrap;html=1;" vertex="1" parent="1">
          <mxGeometry x="362.5" y="1260" width="65" height="30" as="geometry" />
        </mxCell>
        <mxCell id="OMAe1CCSfcrOIt5mbPMs-11" value="Nährwerte" style="rounded=0;whiteSpace=wrap;html=1;" vertex="1" parent="1">
          <mxGeometry x="362.5" y="1330" width="65" height="30" as="geometry" />
        </mxCell>
        <mxCell id="OMAe1CCSfcrOIt5mbPMs-12" value="Abend" style="text;html=1;align=center;verticalAlign=middle;whiteSpace=wrap;rounded=0;" vertex="1" parent="1">
          <mxGeometry x="365" y="1369" width="60" height="30" as="geometry" />
        </mxCell>
        <mxCell id="OMAe1CCSfcrOIt5mbPMs-13" value="Nährwerte" style="rounded=0;whiteSpace=wrap;html=1;" vertex="1" parent="1">
          <mxGeometry x="360" y="1399" width="65" height="30" as="geometry" />
        </mxCell>
        <mxCell id="OMAe1CCSfcrOIt5mbPMs-14" value="Nährwerte" style="rounded=0;whiteSpace=wrap;html=1;" vertex="1" parent="1">
          <mxGeometry x="360" y="1459" width="65" height="30" as="geometry" />
        </mxCell>
        <mxCell id="OMAe1CCSfcrOIt5mbPMs-15" value="" style="rounded=0;whiteSpace=wrap;html=1;" vertex="1" parent="1">
          <mxGeometry x="180" y="930" width="440" height="260" as="geometry" />
        </mxCell>
        <mxCell id="OMAe1CCSfcrOIt5mbPMs-16" value="Produktdetails" style="text;html=1;align=center;verticalAlign=middle;whiteSpace=wrap;rounded=0;" vertex="1" parent="1">
          <mxGeometry x="365" y="940" width="60" height="30" as="geometry" />
        </mxCell>
        <mxCell id="OMAe1CCSfcrOIt5mbPMs-17" value="Bild" style="rounded=0;whiteSpace=wrap;html=1;" vertex="1" parent="1">
          <mxGeometry x="344.5" y="970" width="110" height="40" as="geometry" />
        </mxCell>
        <mxCell id="OMAe1CCSfcrOIt5mbPMs-18" value="100" style="rounded=0;whiteSpace=wrap;html=1;" vertex="1" parent="1">
          <mxGeometry x="395" y="1020" width="90" height="40" as="geometry" />
        </mxCell>
        <mxCell id="OMAe1CCSfcrOIt5mbPMs-19" value="Menge" style="text;html=1;align=center;verticalAlign=middle;whiteSpace=wrap;rounded=0;" vertex="1" parent="1">
          <mxGeometry x="325" y="1025" width="60" height="30" as="geometry" />
        </mxCell>
        <mxCell id="OMAe1CCSfcrOIt5mbPMs-20" value="Frühstück" style="rounded=0;whiteSpace=wrap;html=1;" vertex="1" parent="1">
          <mxGeometry x="393" y="1065" width="106" height="40" as="geometry" />
        </mxCell>
        <mxCell id="OMAe1CCSfcrOIt5mbPMs-21" value="Kategorie" style="text;html=1;align=center;verticalAlign=middle;whiteSpace=wrap;rounded=0;" vertex="1" parent="1">
          <mxGeometry x="323" y="1070" width="60" height="30" as="geometry" />
        </mxCell>
        <mxCell id="OMAe1CCSfcrOIt5mbPMs-22" value="" style="triangle;whiteSpace=wrap;html=1;rotation=90;" vertex="1" parent="1">
          <mxGeometry x="477.25" y="1074.75" width="15.5" height="21" as="geometry" />
        </mxCell>
        <mxCell id="OMAe1CCSfcrOIt5mbPMs-23" value="Hinzufügen&lt;span style=&quot;caret-color: rgba(0, 0, 0, 0); color: rgba(0, 0, 0, 0); font-family: monospace; font-size: 0px; text-align: start; white-space: nowrap;&quot;&gt;%3CmxGraphModel%3E%3Croot%3E%3CmxCell%20id%3D%220%22%2F%3E%3CmxCell%20id%3D%221%22%20parent%3D%220%22%2F%3E%3CmxCell%20id%3D%222%22%20value%3D%22Tag%20l%C3%B6schen%22%20style%3D%22rounded%3D0%3BwhiteSpace%3Dwrap%3Bhtml%3D1%3BfillColor%3D%23d5e8d4%3BstrokeColor%3D%2382b366%3B%22%20vertex%3D%221%22%20parent%3D%221%22%3E%3CmxGeometry%20x%3D%22529%22%20y%3D%22190%22%20width%3D%22111%22%20height%3D%2240%22%20as%3D%22geometry%22%2F%3E%3C%2FmxCell%3E%3C%2Froot%3E%3C%2FmxGraphModel%3E&lt;/span&gt;" style="rounded=0;whiteSpace=wrap;html=1;fillColor=#d5e8d4;strokeColor=#82b366;" vertex="1" parent="1">
          <mxGeometry x="348.25" y="1110" width="98.5" height="31" as="geometry" />
        </mxCell>
        <mxCell id="OMAe1CCSfcrOIt5mbPMs-24" value="Zurück zur Suche" style="rounded=0;whiteSpace=wrap;html=1;fillColor=#d5e8d4;strokeColor=#82b366;" vertex="1" parent="1">
          <mxGeometry x="350" y="1149" width="97.5" height="31" as="geometry" />
        </mxCell>
      </root>
    </mxGraphModel>
  </diagram>
  <diagram id="4A0RcRYzzAp_jQmKM1oe" name="Seite-5">
    <mxGraphModel dx="954" dy="552" grid="1" gridSize="10" guides="1" tooltips="1" connect="1" arrows="1" fold="1" page="1" pageScale="1" pageWidth="827" pageHeight="1169" math="0" shadow="0">
      <root>
        <mxCell id="0" />
        <mxCell id="1" parent="0" />
        <mxCell id="8Bc8eWkyjKTp8a3GQ28j-1" value="" style="rounded=0;whiteSpace=wrap;html=1;" vertex="1" parent="1">
          <mxGeometry x="40" y="70" width="760" height="490" as="geometry" />
        </mxCell>
        <mxCell id="8Bc8eWkyjKTp8a3GQ28j-2" value="&lt;font style=&quot;font-size: 16px;&quot;&gt;FitFood Hub&lt;/font&gt;" style="text;html=1;align=center;verticalAlign=middle;whiteSpace=wrap;rounded=0;" vertex="1" parent="1">
          <mxGeometry x="285" y="90" width="270" height="30" as="geometry" />
        </mxCell>
        <mxCell id="8Bc8eWkyjKTp8a3GQ28j-3" value="Home &amp;nbsp; &amp;nbsp;Food Tracker &amp;nbsp; &amp;nbsp;Rezepte &amp;nbsp; &amp;nbsp;Mahlzeit&amp;nbsp;zusammenstellen" style="rounded=0;whiteSpace=wrap;html=1;" vertex="1" parent="1">
          <mxGeometry x="60" y="130" width="720" height="20" as="geometry" />
        </mxCell>
        <mxCell id="8Bc8eWkyjKTp8a3GQ28j-4" value="&amp;nbsp;Rezepte Desktop PC" style="text;html=1;align=center;verticalAlign=middle;whiteSpace=wrap;rounded=0;" vertex="1" parent="1">
          <mxGeometry x="290" y="30" width="230" height="30" as="geometry" />
        </mxCell>
        <mxCell id="8Bc8eWkyjKTp8a3GQ28j-5" value="" style="rounded=0;whiteSpace=wrap;html=1;" vertex="1" parent="1">
          <mxGeometry x="160" y="650" width="480" height="650" as="geometry" />
        </mxCell>
        <mxCell id="8Bc8eWkyjKTp8a3GQ28j-6" value="&lt;span style=&quot;font-size: 16px;&quot;&gt;FitFood Hub&lt;/span&gt;" style="text;html=1;align=center;verticalAlign=middle;whiteSpace=wrap;rounded=0;" vertex="1" parent="1">
          <mxGeometry x="265" y="660" width="270" height="30" as="geometry" />
        </mxCell>
        <mxCell id="8Bc8eWkyjKTp8a3GQ28j-7" value="" style="shape=image;html=1;verticalAlign=top;verticalLabelPosition=bottom;labelBackgroundColor=#ffffff;imageAspect=0;aspect=fixed;image=https://cdn4.iconfinder.com/data/icons/essential-app-2/16/burger-menu-more-panel-128.png" vertex="1" parent="1">
          <mxGeometry x="570" y="665.5" width="19" height="19" as="geometry" />
        </mxCell>
        <mxCell id="8Bc8eWkyjKTp8a3GQ28j-8" value="Rezepte&amp;nbsp;Handy" style="text;html=1;align=center;verticalAlign=middle;whiteSpace=wrap;rounded=0;" vertex="1" parent="1">
          <mxGeometry x="299" y="610" width="230" height="30" as="geometry" />
        </mxCell>
        <mxCell id="8Bc8eWkyjKTp8a3GQ28j-9" value="Logo" style="rounded=0;whiteSpace=wrap;html=1;" vertex="1" parent="1">
          <mxGeometry x="100" y="87.5" width="50" height="35" as="geometry" />
        </mxCell>
        <mxCell id="8Bc8eWkyjKTp8a3GQ28j-10" value="" style="rounded=0;whiteSpace=wrap;html=1;" vertex="1" parent="1">
          <mxGeometry x="60" y="200" width="720" height="330" as="geometry" />
        </mxCell>
        <mxCell id="8Bc8eWkyjKTp8a3GQ28j-11" value="Suche" style="rounded=0;whiteSpace=wrap;html=1;fillColor=#d5e8d4;strokeColor=#82b366;" vertex="1" parent="1">
          <mxGeometry x="465.5" y="265" width="91" height="30" as="geometry" />
        </mxCell>
        <mxCell id="8Bc8eWkyjKTp8a3GQ28j-12" value="Logo" style="rounded=0;whiteSpace=wrap;html=1;" vertex="1" parent="1">
          <mxGeometry x="205" y="665.5" width="50" height="35" as="geometry" />
        </mxCell>
        <mxCell id="8Bc8eWkyjKTp8a3GQ28j-13" value="&quot;Suche&quot;" style="rounded=0;whiteSpace=wrap;html=1;" vertex="1" parent="1">
          <mxGeometry x="285" y="260" width="125" height="40" as="geometry" />
        </mxCell>
        <mxCell id="8Bc8eWkyjKTp8a3GQ28j-14" value="" style="rounded=0;whiteSpace=wrap;html=1;" vertex="1" parent="1">
          <mxGeometry x="100" y="330" width="140" height="175" as="geometry" />
        </mxCell>
        <mxCell id="8Bc8eWkyjKTp8a3GQ28j-15" value="Bild" style="rounded=0;whiteSpace=wrap;html=1;" vertex="1" parent="1">
          <mxGeometry x="110" y="387.5" width="120" height="60" as="geometry" />
        </mxCell>
        <mxCell id="8Bc8eWkyjKTp8a3GQ28j-16" value="Details" style="rounded=0;whiteSpace=wrap;html=1;fillColor=#d5e8d4;strokeColor=#82b366;" vertex="1" parent="1">
          <mxGeometry x="124.5" y="465" width="91" height="30" as="geometry" />
        </mxCell>
        <mxCell id="8Bc8eWkyjKTp8a3GQ28j-17" value="Mahlzeit" style="text;html=1;align=center;verticalAlign=middle;whiteSpace=wrap;rounded=0;" vertex="1" parent="1">
          <mxGeometry x="140" y="345" width="60" height="30" as="geometry" />
        </mxCell>
        <mxCell id="8Bc8eWkyjKTp8a3GQ28j-18" value="" style="rounded=0;whiteSpace=wrap;html=1;" vertex="1" parent="1">
          <mxGeometry x="350" y="330" width="140" height="175" as="geometry" />
        </mxCell>
        <mxCell id="8Bc8eWkyjKTp8a3GQ28j-19" value="Bild" style="rounded=0;whiteSpace=wrap;html=1;" vertex="1" parent="1">
          <mxGeometry x="360" y="387.5" width="120" height="60" as="geometry" />
        </mxCell>
        <mxCell id="8Bc8eWkyjKTp8a3GQ28j-20" value="Details" style="rounded=0;whiteSpace=wrap;html=1;fillColor=#d5e8d4;strokeColor=#82b366;" vertex="1" parent="1">
          <mxGeometry x="374.5" y="465" width="91" height="30" as="geometry" />
        </mxCell>
        <mxCell id="8Bc8eWkyjKTp8a3GQ28j-21" value="Mahlzeit" style="text;html=1;align=center;verticalAlign=middle;whiteSpace=wrap;rounded=0;" vertex="1" parent="1">
          <mxGeometry x="390" y="345" width="60" height="30" as="geometry" />
        </mxCell>
        <mxCell id="8Bc8eWkyjKTp8a3GQ28j-22" value="" style="rounded=0;whiteSpace=wrap;html=1;" vertex="1" parent="1">
          <mxGeometry x="589" y="330" width="140" height="175" as="geometry" />
        </mxCell>
        <mxCell id="8Bc8eWkyjKTp8a3GQ28j-23" value="Bild" style="rounded=0;whiteSpace=wrap;html=1;" vertex="1" parent="1">
          <mxGeometry x="599" y="387.5" width="120" height="60" as="geometry" />
        </mxCell>
        <mxCell id="8Bc8eWkyjKTp8a3GQ28j-24" value="Details" style="rounded=0;whiteSpace=wrap;html=1;fillColor=#d5e8d4;strokeColor=#82b366;" vertex="1" parent="1">
          <mxGeometry x="613.5" y="465" width="91" height="30" as="geometry" />
        </mxCell>
        <mxCell id="8Bc8eWkyjKTp8a3GQ28j-25" value="Mahlzeit" style="text;html=1;align=center;verticalAlign=middle;whiteSpace=wrap;rounded=0;" vertex="1" parent="1">
          <mxGeometry x="629" y="345" width="60" height="30" as="geometry" />
        </mxCell>
        <mxCell id="8Bc8eWkyjKTp8a3GQ28j-26" value="Suche Rezepte" style="text;html=1;align=center;verticalAlign=middle;whiteSpace=wrap;rounded=0;" vertex="1" parent="1">
          <mxGeometry x="359.5" y="210" width="127.5" height="30" as="geometry" />
        </mxCell>
        <mxCell id="8Bc8eWkyjKTp8a3GQ28j-27" value="Suche" style="rounded=0;whiteSpace=wrap;html=1;fillColor=#d5e8d4;strokeColor=#82b366;" vertex="1" parent="1">
          <mxGeometry x="435.5" y="775" width="91" height="30" as="geometry" />
        </mxCell>
        <mxCell id="8Bc8eWkyjKTp8a3GQ28j-28" value="&quot;Suche&quot;" style="rounded=0;whiteSpace=wrap;html=1;" vertex="1" parent="1">
          <mxGeometry x="255" y="770" width="125" height="40" as="geometry" />
        </mxCell>
        <mxCell id="8Bc8eWkyjKTp8a3GQ28j-29" value="Suche Rezepte" style="text;html=1;align=center;verticalAlign=middle;whiteSpace=wrap;rounded=0;" vertex="1" parent="1">
          <mxGeometry x="329.5" y="720" width="127.5" height="30" as="geometry" />
        </mxCell>
        <mxCell id="8Bc8eWkyjKTp8a3GQ28j-30" value="" style="rounded=0;whiteSpace=wrap;html=1;" vertex="1" parent="1">
          <mxGeometry x="330" y="850" width="140" height="130" as="geometry" />
        </mxCell>
        <mxCell id="8Bc8eWkyjKTp8a3GQ28j-31" value="Bild" style="rounded=0;whiteSpace=wrap;html=1;" vertex="1" parent="1">
          <mxGeometry x="350.5" y="890" width="100" height="32.5" as="geometry" />
        </mxCell>
        <mxCell id="8Bc8eWkyjKTp8a3GQ28j-32" value="Details" style="rounded=0;whiteSpace=wrap;html=1;fillColor=#d5e8d4;strokeColor=#82b366;" vertex="1" parent="1">
          <mxGeometry x="357.25" y="940" width="85.5" height="15" as="geometry" />
        </mxCell>
        <mxCell id="8Bc8eWkyjKTp8a3GQ28j-33" value="Mahlzeit" style="text;html=1;align=center;verticalAlign=middle;whiteSpace=wrap;rounded=0;" vertex="1" parent="1">
          <mxGeometry x="385" y="865" width="40" height="15" as="geometry" />
        </mxCell>
        <mxCell id="8Bc8eWkyjKTp8a3GQ28j-34" value="" style="rounded=0;whiteSpace=wrap;html=1;" vertex="1" parent="1">
          <mxGeometry x="330" y="1000" width="140" height="130" as="geometry" />
        </mxCell>
        <mxCell id="8Bc8eWkyjKTp8a3GQ28j-35" value="Bild" style="rounded=0;whiteSpace=wrap;html=1;" vertex="1" parent="1">
          <mxGeometry x="350.5" y="1040" width="100" height="32.5" as="geometry" />
        </mxCell>
        <mxCell id="8Bc8eWkyjKTp8a3GQ28j-36" value="Details" style="rounded=0;whiteSpace=wrap;html=1;fillColor=#d5e8d4;strokeColor=#82b366;" vertex="1" parent="1">
          <mxGeometry x="357.25" y="1090" width="85.5" height="15" as="geometry" />
        </mxCell>
        <mxCell id="8Bc8eWkyjKTp8a3GQ28j-37" value="Mahlzeit" style="text;html=1;align=center;verticalAlign=middle;whiteSpace=wrap;rounded=0;" vertex="1" parent="1">
          <mxGeometry x="385" y="1015" width="40" height="15" as="geometry" />
        </mxCell>
        <mxCell id="8Bc8eWkyjKTp8a3GQ28j-38" value="" style="rounded=0;whiteSpace=wrap;html=1;" vertex="1" parent="1">
          <mxGeometry x="329.5" y="1150" width="140" height="130" as="geometry" />
        </mxCell>
        <mxCell id="8Bc8eWkyjKTp8a3GQ28j-39" value="Bild" style="rounded=0;whiteSpace=wrap;html=1;" vertex="1" parent="1">
          <mxGeometry x="350" y="1190" width="100" height="32.5" as="geometry" />
        </mxCell>
        <mxCell id="8Bc8eWkyjKTp8a3GQ28j-40" value="Details" style="rounded=0;whiteSpace=wrap;html=1;fillColor=#d5e8d4;strokeColor=#82b366;" vertex="1" parent="1">
          <mxGeometry x="356.75" y="1240" width="85.5" height="15" as="geometry" />
        </mxCell>
        <mxCell id="8Bc8eWkyjKTp8a3GQ28j-41" value="Mahlzeit" style="text;html=1;align=center;verticalAlign=middle;whiteSpace=wrap;rounded=0;" vertex="1" parent="1">
          <mxGeometry x="384.5" y="1165" width="40" height="15" as="geometry" />
        </mxCell>
      </root>
    </mxGraphModel>
  </diagram>
  <diagram id="vHxOcMT1usrwXvl_1rUe" name="Seite-6">
    <mxGraphModel dx="954" dy="552" grid="1" gridSize="10" guides="1" tooltips="1" connect="1" arrows="1" fold="1" page="1" pageScale="1" pageWidth="827" pageHeight="1169" math="0" shadow="0">
      <root>
        <mxCell id="0" />
        <mxCell id="1" parent="0" />
        <mxCell id="1oJ5OTQKHJ62SnAFkozV-1" value="" style="rounded=0;whiteSpace=wrap;html=1;" vertex="1" parent="1">
          <mxGeometry x="40" y="70" width="760" height="490" as="geometry" />
        </mxCell>
        <mxCell id="1oJ5OTQKHJ62SnAFkozV-2" value="&lt;font style=&quot;font-size: 16px;&quot;&gt;FitFood Hub&lt;/font&gt;" style="text;html=1;align=center;verticalAlign=middle;whiteSpace=wrap;rounded=0;" vertex="1" parent="1">
          <mxGeometry x="285" y="90" width="270" height="30" as="geometry" />
        </mxCell>
        <mxCell id="1oJ5OTQKHJ62SnAFkozV-3" value="Home &amp;nbsp; &amp;nbsp;Food Tracker &amp;nbsp; &amp;nbsp;Rezepte &amp;nbsp; &amp;nbsp;Mahlzeit&amp;nbsp;zusammenstellen" style="rounded=0;whiteSpace=wrap;html=1;" vertex="1" parent="1">
          <mxGeometry x="60" y="130" width="720" height="20" as="geometry" />
        </mxCell>
        <mxCell id="1oJ5OTQKHJ62SnAFkozV-4" value="&amp;nbsp;Mahlzeit Desktop PC" style="text;html=1;align=center;verticalAlign=middle;whiteSpace=wrap;rounded=0;" vertex="1" parent="1">
          <mxGeometry x="290" y="30" width="230" height="30" as="geometry" />
        </mxCell>
        <mxCell id="1oJ5OTQKHJ62SnAFkozV-5" value="" style="rounded=0;whiteSpace=wrap;html=1;" vertex="1" parent="1">
          <mxGeometry x="160" y="650" width="480" height="510" as="geometry" />
        </mxCell>
        <mxCell id="1oJ5OTQKHJ62SnAFkozV-6" value="&lt;span style=&quot;font-size: 16px;&quot;&gt;FitFood Hub&lt;/span&gt;" style="text;html=1;align=center;verticalAlign=middle;whiteSpace=wrap;rounded=0;" vertex="1" parent="1">
          <mxGeometry x="265" y="660" width="270" height="30" as="geometry" />
        </mxCell>
        <mxCell id="1oJ5OTQKHJ62SnAFkozV-7" value="" style="shape=image;html=1;verticalAlign=top;verticalLabelPosition=bottom;labelBackgroundColor=#ffffff;imageAspect=0;aspect=fixed;image=https://cdn4.iconfinder.com/data/icons/essential-app-2/16/burger-menu-more-panel-128.png" vertex="1" parent="1">
          <mxGeometry x="570" y="665.5" width="19" height="19" as="geometry" />
        </mxCell>
        <mxCell id="1oJ5OTQKHJ62SnAFkozV-8" value="Mahlzeit&amp;nbsp;Handy" style="text;html=1;align=center;verticalAlign=middle;whiteSpace=wrap;rounded=0;" vertex="1" parent="1">
          <mxGeometry x="299" y="610" width="230" height="30" as="geometry" />
        </mxCell>
        <mxCell id="1oJ5OTQKHJ62SnAFkozV-9" value="Logo" style="rounded=0;whiteSpace=wrap;html=1;" vertex="1" parent="1">
          <mxGeometry x="100" y="87.5" width="50" height="35" as="geometry" />
        </mxCell>
        <mxCell id="1oJ5OTQKHJ62SnAFkozV-10" value="" style="rounded=0;whiteSpace=wrap;html=1;" vertex="1" parent="1">
          <mxGeometry x="60" y="200" width="720" height="330" as="geometry" />
        </mxCell>
        <mxCell id="1oJ5OTQKHJ62SnAFkozV-12" value="Logo" style="rounded=0;whiteSpace=wrap;html=1;" vertex="1" parent="1">
          <mxGeometry x="205" y="665.5" width="50" height="35" as="geometry" />
        </mxCell>
        <mxCell id="1oJ5OTQKHJ62SnAFkozV-26" value="Mahlzeit zusammenstellen" style="text;html=1;align=center;verticalAlign=middle;whiteSpace=wrap;rounded=0;" vertex="1" parent="1">
          <mxGeometry x="339.75" y="210" width="160.5" height="30" as="geometry" />
        </mxCell>
        <mxCell id="kluf5fa6AJBgRDNJHvcy-1" value="Erstellte Rezepte" style="rounded=0;whiteSpace=wrap;html=1;" vertex="1" parent="1">
          <mxGeometry x="105" y="350" width="120" height="60" as="geometry" />
        </mxCell>
        <mxCell id="kluf5fa6AJBgRDNJHvcy-2" value="Rezeptname" style="text;html=1;align=center;verticalAlign=middle;whiteSpace=wrap;rounded=0;" vertex="1" parent="1">
          <mxGeometry x="135" y="420" width="60" height="30" as="geometry" />
        </mxCell>
        <mxCell id="kluf5fa6AJBgRDNJHvcy-3" value="Erstellte Rezepte" style="rounded=0;whiteSpace=wrap;html=1;" vertex="1" parent="1">
          <mxGeometry x="260" y="350" width="120" height="60" as="geometry" />
        </mxCell>
        <mxCell id="kluf5fa6AJBgRDNJHvcy-4" value="Rezeptname" style="text;html=1;align=center;verticalAlign=middle;whiteSpace=wrap;rounded=0;" vertex="1" parent="1">
          <mxGeometry x="290" y="420" width="60" height="30" as="geometry" />
        </mxCell>
        <mxCell id="kluf5fa6AJBgRDNJHvcy-5" value="Erstellte Rezepte" style="rounded=0;whiteSpace=wrap;html=1;" vertex="1" parent="1">
          <mxGeometry x="425" y="350" width="120" height="60" as="geometry" />
        </mxCell>
        <mxCell id="kluf5fa6AJBgRDNJHvcy-6" value="Rezeptname" style="text;html=1;align=center;verticalAlign=middle;whiteSpace=wrap;rounded=0;" vertex="1" parent="1">
          <mxGeometry x="455" y="420" width="60" height="30" as="geometry" />
        </mxCell>
        <mxCell id="kluf5fa6AJBgRDNJHvcy-7" value="Erstellte Rezepte" style="rounded=0;whiteSpace=wrap;html=1;" vertex="1" parent="1">
          <mxGeometry x="580" y="350" width="120" height="60" as="geometry" />
        </mxCell>
        <mxCell id="kluf5fa6AJBgRDNJHvcy-8" value="Rezeptname" style="text;html=1;align=center;verticalAlign=middle;whiteSpace=wrap;rounded=0;" vertex="1" parent="1">
          <mxGeometry x="610" y="420" width="60" height="30" as="geometry" />
        </mxCell>
        <mxCell id="kluf5fa6AJBgRDNJHvcy-9" value="Button" style="rounded=0;whiteSpace=wrap;html=1;fillColor=#d5e8d4;strokeColor=#82b366;" vertex="1" parent="1">
          <mxGeometry x="345" y="260" width="120" height="60" as="geometry" />
        </mxCell>
        <mxCell id="kluf5fa6AJBgRDNJHvcy-10" value="Mahlzeit erstellen" style="text;html=1;align=center;verticalAlign=middle;whiteSpace=wrap;rounded=0;" vertex="1" parent="1">
          <mxGeometry x="474" y="275" width="115" height="30" as="geometry" />
        </mxCell>
        <mxCell id="kluf5fa6AJBgRDNJHvcy-19" value="" style="rounded=0;whiteSpace=wrap;html=1;" vertex="1" parent="1">
          <mxGeometry x="190" y="730" width="420" height="410" as="geometry" />
        </mxCell>
        <mxCell id="kluf5fa6AJBgRDNJHvcy-20" value="Erstellte Rezepte" style="rounded=0;whiteSpace=wrap;html=1;" vertex="1" parent="1">
          <mxGeometry x="314.25" y="915" width="120" height="60" as="geometry" />
        </mxCell>
        <mxCell id="kluf5fa6AJBgRDNJHvcy-21" value="Rezeptname" style="text;html=1;align=center;verticalAlign=middle;whiteSpace=wrap;rounded=0;" vertex="1" parent="1">
          <mxGeometry x="344.25" y="985" width="60" height="30" as="geometry" />
        </mxCell>
        <mxCell id="kluf5fa6AJBgRDNJHvcy-22" value="Erstellte Rezepte" style="rounded=0;whiteSpace=wrap;html=1;" vertex="1" parent="1">
          <mxGeometry x="314.25" y="1030" width="120" height="60" as="geometry" />
        </mxCell>
        <mxCell id="kluf5fa6AJBgRDNJHvcy-23" value="Rezeptname" style="text;html=1;align=center;verticalAlign=middle;whiteSpace=wrap;rounded=0;" vertex="1" parent="1">
          <mxGeometry x="344.25" y="1100" width="60" height="30" as="geometry" />
        </mxCell>
        <mxCell id="kluf5fa6AJBgRDNJHvcy-24" value="Mahlzeit zusammenstellen" style="text;html=1;align=center;verticalAlign=middle;whiteSpace=wrap;rounded=0;" vertex="1" parent="1">
          <mxGeometry x="310" y="740" width="160.5" height="30" as="geometry" />
        </mxCell>
        <mxCell id="kluf5fa6AJBgRDNJHvcy-25" value="Button" style="rounded=0;whiteSpace=wrap;html=1;fillColor=#d5e8d4;strokeColor=#82b366;" vertex="1" parent="1">
          <mxGeometry x="314.25" y="790" width="120" height="60" as="geometry" />
        </mxCell>
        <mxCell id="kluf5fa6AJBgRDNJHvcy-26" value="Mahlzeit erstellen" style="text;html=1;align=center;verticalAlign=middle;whiteSpace=wrap;rounded=0;" vertex="1" parent="1">
          <mxGeometry x="444.25" y="805" width="115" height="30" as="geometry" />
        </mxCell>
      </root>
    </mxGraphModel>
  </diagram>
  <diagram id="AuLnwAJd73SRFGsg_ok3" name="Seite-7">
    <mxGraphModel dx="954" dy="552" grid="1" gridSize="10" guides="1" tooltips="1" connect="1" arrows="1" fold="1" page="1" pageScale="1" pageWidth="827" pageHeight="1169" math="0" shadow="0">
      <root>
        <mxCell id="0" />
        <mxCell id="1" parent="0" />
        <mxCell id="fOxzrGRgWuk33q-UqPke-1" value="" style="rounded=0;whiteSpace=wrap;html=1;" vertex="1" parent="1">
          <mxGeometry x="40" y="70" width="760" height="490" as="geometry" />
        </mxCell>
        <mxCell id="fOxzrGRgWuk33q-UqPke-2" value="&lt;font style=&quot;font-size: 16px;&quot;&gt;FitFood Hub&lt;/font&gt;" style="text;html=1;align=center;verticalAlign=middle;whiteSpace=wrap;rounded=0;" vertex="1" parent="1">
          <mxGeometry x="285" y="90" width="270" height="30" as="geometry" />
        </mxCell>
        <mxCell id="fOxzrGRgWuk33q-UqPke-3" value="Home &amp;nbsp; &amp;nbsp;Food Tracker &amp;nbsp; &amp;nbsp;Rezepte &amp;nbsp; &amp;nbsp;Mahlzeit&amp;nbsp;zusammenstellen" style="rounded=0;whiteSpace=wrap;html=1;" vertex="1" parent="1">
          <mxGeometry x="60" y="130" width="720" height="20" as="geometry" />
        </mxCell>
        <mxCell id="fOxzrGRgWuk33q-UqPke-4" value="Suche Mahlzeiten zusammenstellen&amp;nbsp;Desktop PC" style="text;html=1;align=center;verticalAlign=middle;whiteSpace=wrap;rounded=0;" vertex="1" parent="1">
          <mxGeometry x="290" y="30" width="230" height="30" as="geometry" />
        </mxCell>
        <mxCell id="fOxzrGRgWuk33q-UqPke-5" value="" style="rounded=0;whiteSpace=wrap;html=1;" vertex="1" parent="1">
          <mxGeometry x="160" y="650" width="480" height="650" as="geometry" />
        </mxCell>
        <mxCell id="fOxzrGRgWuk33q-UqPke-6" value="&lt;span style=&quot;font-size: 16px;&quot;&gt;FitFood Hub&lt;/span&gt;" style="text;html=1;align=center;verticalAlign=middle;whiteSpace=wrap;rounded=0;" vertex="1" parent="1">
          <mxGeometry x="265" y="660" width="270" height="30" as="geometry" />
        </mxCell>
        <mxCell id="fOxzrGRgWuk33q-UqPke-7" value="" style="shape=image;html=1;verticalAlign=top;verticalLabelPosition=bottom;labelBackgroundColor=#ffffff;imageAspect=0;aspect=fixed;image=https://cdn4.iconfinder.com/data/icons/essential-app-2/16/burger-menu-more-panel-128.png" vertex="1" parent="1">
          <mxGeometry x="570" y="665.5" width="19" height="19" as="geometry" />
        </mxCell>
        <mxCell id="fOxzrGRgWuk33q-UqPke-8" value="Suche Mahlzeiten zusammenstellen&amp;nbsp;Handy" style="text;html=1;align=center;verticalAlign=middle;whiteSpace=wrap;rounded=0;" vertex="1" parent="1">
          <mxGeometry x="299" y="610" width="230" height="30" as="geometry" />
        </mxCell>
        <mxCell id="fOxzrGRgWuk33q-UqPke-9" value="Logo" style="rounded=0;whiteSpace=wrap;html=1;" vertex="1" parent="1">
          <mxGeometry x="100" y="87.5" width="50" height="35" as="geometry" />
        </mxCell>
        <mxCell id="fOxzrGRgWuk33q-UqPke-10" value="" style="rounded=0;whiteSpace=wrap;html=1;" vertex="1" parent="1">
          <mxGeometry x="60" y="200" width="720" height="330" as="geometry" />
        </mxCell>
        <mxCell id="fOxzrGRgWuk33q-UqPke-11" value="Suche" style="rounded=0;whiteSpace=wrap;html=1;fillColor=#d5e8d4;strokeColor=#82b366;" vertex="1" parent="1">
          <mxGeometry x="465.5" y="265" width="91" height="30" as="geometry" />
        </mxCell>
        <mxCell id="fOxzrGRgWuk33q-UqPke-12" value="Logo" style="rounded=0;whiteSpace=wrap;html=1;" vertex="1" parent="1">
          <mxGeometry x="205" y="665.5" width="50" height="35" as="geometry" />
        </mxCell>
        <mxCell id="fOxzrGRgWuk33q-UqPke-13" value="&quot;Suche&quot;" style="rounded=0;whiteSpace=wrap;html=1;" vertex="1" parent="1">
          <mxGeometry x="285" y="260" width="125" height="40" as="geometry" />
        </mxCell>
        <mxCell id="fOxzrGRgWuk33q-UqPke-14" value="" style="rounded=0;whiteSpace=wrap;html=1;" vertex="1" parent="1">
          <mxGeometry x="100" y="330" width="140" height="175" as="geometry" />
        </mxCell>
        <mxCell id="fOxzrGRgWuk33q-UqPke-15" value="Bild" style="rounded=0;whiteSpace=wrap;html=1;" vertex="1" parent="1">
          <mxGeometry x="110" y="387.5" width="120" height="60" as="geometry" />
        </mxCell>
        <mxCell id="fOxzrGRgWuk33q-UqPke-16" value="Details" style="rounded=0;whiteSpace=wrap;html=1;fillColor=#d5e8d4;strokeColor=#82b366;" vertex="1" parent="1">
          <mxGeometry x="124.5" y="465" width="91" height="30" as="geometry" />
        </mxCell>
        <mxCell id="fOxzrGRgWuk33q-UqPke-17" value="Zutat" style="text;html=1;align=center;verticalAlign=middle;whiteSpace=wrap;rounded=0;" vertex="1" parent="1">
          <mxGeometry x="140" y="345" width="60" height="30" as="geometry" />
        </mxCell>
        <mxCell id="fOxzrGRgWuk33q-UqPke-18" value="" style="rounded=0;whiteSpace=wrap;html=1;" vertex="1" parent="1">
          <mxGeometry x="350" y="330" width="140" height="175" as="geometry" />
        </mxCell>
        <mxCell id="fOxzrGRgWuk33q-UqPke-19" value="Bild" style="rounded=0;whiteSpace=wrap;html=1;" vertex="1" parent="1">
          <mxGeometry x="360" y="387.5" width="120" height="60" as="geometry" />
        </mxCell>
        <mxCell id="fOxzrGRgWuk33q-UqPke-20" value="Details" style="rounded=0;whiteSpace=wrap;html=1;fillColor=#d5e8d4;strokeColor=#82b366;" vertex="1" parent="1">
          <mxGeometry x="374.5" y="465" width="91" height="30" as="geometry" />
        </mxCell>
        <mxCell id="fOxzrGRgWuk33q-UqPke-21" value="Zutat" style="text;html=1;align=center;verticalAlign=middle;whiteSpace=wrap;rounded=0;" vertex="1" parent="1">
          <mxGeometry x="390" y="345" width="60" height="30" as="geometry" />
        </mxCell>
        <mxCell id="fOxzrGRgWuk33q-UqPke-22" value="" style="rounded=0;whiteSpace=wrap;html=1;" vertex="1" parent="1">
          <mxGeometry x="589" y="330" width="140" height="175" as="geometry" />
        </mxCell>
        <mxCell id="fOxzrGRgWuk33q-UqPke-23" value="Bild" style="rounded=0;whiteSpace=wrap;html=1;" vertex="1" parent="1">
          <mxGeometry x="599" y="387.5" width="120" height="60" as="geometry" />
        </mxCell>
        <mxCell id="fOxzrGRgWuk33q-UqPke-24" value="Details" style="rounded=0;whiteSpace=wrap;html=1;fillColor=#d5e8d4;strokeColor=#82b366;" vertex="1" parent="1">
          <mxGeometry x="613.5" y="465" width="91" height="30" as="geometry" />
        </mxCell>
        <mxCell id="fOxzrGRgWuk33q-UqPke-25" value="Zutat" style="text;html=1;align=center;verticalAlign=middle;whiteSpace=wrap;rounded=0;" vertex="1" parent="1">
          <mxGeometry x="629" y="345" width="60" height="30" as="geometry" />
        </mxCell>
        <mxCell id="fOxzrGRgWuk33q-UqPke-26" value="Mahlzeiten zusammenstellen" style="text;html=1;align=center;verticalAlign=middle;whiteSpace=wrap;rounded=0;" vertex="1" parent="1">
          <mxGeometry x="359.5" y="210" width="127.5" height="30" as="geometry" />
        </mxCell>
        <mxCell id="fOxzrGRgWuk33q-UqPke-27" value="Suche" style="rounded=0;whiteSpace=wrap;html=1;fillColor=#d5e8d4;strokeColor=#82b366;" vertex="1" parent="1">
          <mxGeometry x="435.5" y="775" width="91" height="30" as="geometry" />
        </mxCell>
        <mxCell id="fOxzrGRgWuk33q-UqPke-28" value="&quot;Suche&quot;" style="rounded=0;whiteSpace=wrap;html=1;" vertex="1" parent="1">
          <mxGeometry x="255" y="770" width="125" height="40" as="geometry" />
        </mxCell>
        <mxCell id="fOxzrGRgWuk33q-UqPke-29" value="Mahlzeiten zusammenstellen" style="text;html=1;align=center;verticalAlign=middle;whiteSpace=wrap;rounded=0;" vertex="1" parent="1">
          <mxGeometry x="329.5" y="720" width="127.5" height="30" as="geometry" />
        </mxCell>
        <mxCell id="fOxzrGRgWuk33q-UqPke-30" value="" style="rounded=0;whiteSpace=wrap;html=1;" vertex="1" parent="1">
          <mxGeometry x="330" y="850" width="140" height="130" as="geometry" />
        </mxCell>
        <mxCell id="fOxzrGRgWuk33q-UqPke-31" value="Bild" style="rounded=0;whiteSpace=wrap;html=1;" vertex="1" parent="1">
          <mxGeometry x="350.5" y="890" width="100" height="32.5" as="geometry" />
        </mxCell>
        <mxCell id="fOxzrGRgWuk33q-UqPke-32" value="Details" style="rounded=0;whiteSpace=wrap;html=1;fillColor=#d5e8d4;strokeColor=#82b366;" vertex="1" parent="1">
          <mxGeometry x="357.25" y="940" width="85.5" height="15" as="geometry" />
        </mxCell>
        <mxCell id="fOxzrGRgWuk33q-UqPke-33" value="Zutat" style="text;html=1;align=center;verticalAlign=middle;whiteSpace=wrap;rounded=0;" vertex="1" parent="1">
          <mxGeometry x="385" y="865" width="40" height="15" as="geometry" />
        </mxCell>
        <mxCell id="fOxzrGRgWuk33q-UqPke-34" value="" style="rounded=0;whiteSpace=wrap;html=1;" vertex="1" parent="1">
          <mxGeometry x="330" y="1000" width="140" height="130" as="geometry" />
        </mxCell>
        <mxCell id="fOxzrGRgWuk33q-UqPke-35" value="Bild" style="rounded=0;whiteSpace=wrap;html=1;" vertex="1" parent="1">
          <mxGeometry x="350.5" y="1040" width="100" height="32.5" as="geometry" />
        </mxCell>
        <mxCell id="fOxzrGRgWuk33q-UqPke-36" value="Details" style="rounded=0;whiteSpace=wrap;html=1;fillColor=#d5e8d4;strokeColor=#82b366;" vertex="1" parent="1">
          <mxGeometry x="357.25" y="1090" width="85.5" height="15" as="geometry" />
        </mxCell>
        <mxCell id="fOxzrGRgWuk33q-UqPke-37" value="Zutat" style="text;html=1;align=center;verticalAlign=middle;whiteSpace=wrap;rounded=0;" vertex="1" parent="1">
          <mxGeometry x="385" y="1015" width="40" height="15" as="geometry" />
        </mxCell>
        <mxCell id="fOxzrGRgWuk33q-UqPke-38" value="" style="rounded=0;whiteSpace=wrap;html=1;" vertex="1" parent="1">
          <mxGeometry x="329.5" y="1150" width="140" height="130" as="geometry" />
        </mxCell>
        <mxCell id="fOxzrGRgWuk33q-UqPke-39" value="Bild" style="rounded=0;whiteSpace=wrap;html=1;" vertex="1" parent="1">
          <mxGeometry x="350" y="1190" width="100" height="32.5" as="geometry" />
        </mxCell>
        <mxCell id="fOxzrGRgWuk33q-UqPke-40" value="Details" style="rounded=0;whiteSpace=wrap;html=1;fillColor=#d5e8d4;strokeColor=#82b366;" vertex="1" parent="1">
          <mxGeometry x="356.75" y="1240" width="85.5" height="15" as="geometry" />
        </mxCell>
        <mxCell id="fOxzrGRgWuk33q-UqPke-41" value="Zutat" style="text;html=1;align=center;verticalAlign=middle;whiteSpace=wrap;rounded=0;" vertex="1" parent="1">
          <mxGeometry x="384.5" y="1165" width="40" height="15" as="geometry" />
        </mxCell>
      </root>
    </mxGraphModel>
  </diagram>
  <diagram id="L2x0h8BjLiXGAj-Vgu91" name="Seite-8">
    <mxGraphModel dx="954" dy="552" grid="1" gridSize="10" guides="1" tooltips="1" connect="1" arrows="1" fold="1" page="1" pageScale="1" pageWidth="827" pageHeight="1169" math="0" shadow="0">
      <root>
        <mxCell id="0" />
        <mxCell id="1" parent="0" />
        <mxCell id="gOxxzV-3G9eCt_8XdLP--1" value="" style="rounded=0;whiteSpace=wrap;html=1;" vertex="1" parent="1">
          <mxGeometry x="40" y="70" width="760" height="540" as="geometry" />
        </mxCell>
        <mxCell id="gOxxzV-3G9eCt_8XdLP--2" value="&lt;font style=&quot;font-size: 16px;&quot;&gt;FitFood Hub&lt;/font&gt;" style="text;html=1;align=center;verticalAlign=middle;whiteSpace=wrap;rounded=0;" vertex="1" parent="1">
          <mxGeometry x="285" y="90" width="270" height="30" as="geometry" />
        </mxCell>
        <mxCell id="gOxxzV-3G9eCt_8XdLP--3" value="Home &amp;nbsp; &amp;nbsp;Food Tracker &amp;nbsp; &amp;nbsp;Rezepte &amp;nbsp; &amp;nbsp;Mahlzeit&amp;nbsp;zusammenstellen" style="rounded=0;whiteSpace=wrap;html=1;" vertex="1" parent="1">
          <mxGeometry x="60" y="130" width="720" height="20" as="geometry" />
        </mxCell>
        <mxCell id="gOxxzV-3G9eCt_8XdLP--4" value="Essen hinzufügen Food Tracker&amp;nbsp;Desktop PC" style="text;html=1;align=center;verticalAlign=middle;whiteSpace=wrap;rounded=0;" vertex="1" parent="1">
          <mxGeometry x="290" y="30" width="280" height="30" as="geometry" />
        </mxCell>
        <mxCell id="gOxxzV-3G9eCt_8XdLP--5" value="" style="rounded=0;whiteSpace=wrap;html=1;" vertex="1" parent="1">
          <mxGeometry x="160" y="740" width="480" height="790" as="geometry" />
        </mxCell>
        <mxCell id="gOxxzV-3G9eCt_8XdLP--6" value="&lt;span style=&quot;font-size: 16px;&quot;&gt;FitFood Hub&lt;/span&gt;" style="text;html=1;align=center;verticalAlign=middle;whiteSpace=wrap;rounded=0;" vertex="1" parent="1">
          <mxGeometry x="265" y="750" width="270" height="30" as="geometry" />
        </mxCell>
        <mxCell id="gOxxzV-3G9eCt_8XdLP--7" value="" style="shape=image;html=1;verticalAlign=top;verticalLabelPosition=bottom;labelBackgroundColor=#ffffff;imageAspect=0;aspect=fixed;image=https://cdn4.iconfinder.com/data/icons/essential-app-2/16/burger-menu-more-panel-128.png" vertex="1" parent="1">
          <mxGeometry x="570" y="755.5" width="19" height="19" as="geometry" />
        </mxCell>
        <mxCell id="gOxxzV-3G9eCt_8XdLP--8" value="Essen hinzufügen&amp;nbsp;&amp;nbsp;Food Tracker Handy" style="text;html=1;align=center;verticalAlign=middle;whiteSpace=wrap;rounded=0;" vertex="1" parent="1">
          <mxGeometry x="289.5" y="710" width="230" height="30" as="geometry" />
        </mxCell>
        <mxCell id="gOxxzV-3G9eCt_8XdLP--9" value="Logo" style="rounded=0;whiteSpace=wrap;html=1;" vertex="1" parent="1">
          <mxGeometry x="100" y="87.5" width="50" height="35" as="geometry" />
        </mxCell>
        <mxCell id="gOxxzV-3G9eCt_8XdLP--10" value="Logo" style="rounded=0;whiteSpace=wrap;html=1;" vertex="1" parent="1">
          <mxGeometry x="205" y="755.5" width="50" height="35" as="geometry" />
        </mxCell>
        <mxCell id="gOxxzV-3G9eCt_8XdLP--15" value="" style="rounded=0;whiteSpace=wrap;html=1;" vertex="1" parent="1">
          <mxGeometry x="60" y="190" width="720" height="250" as="geometry" />
        </mxCell>
        <mxCell id="gOxxzV-3G9eCt_8XdLP--16" value="" style="rounded=0;whiteSpace=wrap;html=1;" vertex="1" parent="1">
          <mxGeometry x="60" y="455" width="720" height="130" as="geometry" />
        </mxCell>
        <mxCell id="gOxxzV-3G9eCt_8XdLP--26" value="Produktdetails" style="text;html=1;align=center;verticalAlign=middle;whiteSpace=wrap;rounded=0;" vertex="1" parent="1">
          <mxGeometry x="369.5" y="220" width="60" height="30" as="geometry" />
        </mxCell>
        <mxCell id="gOxxzV-3G9eCt_8XdLP--27" value="Bild" style="rounded=0;whiteSpace=wrap;html=1;" vertex="1" parent="1">
          <mxGeometry x="348.25" y="280" width="110" height="40" as="geometry" />
        </mxCell>
        <mxCell id="gOxxzV-3G9eCt_8XdLP--28" value="100" style="rounded=0;whiteSpace=wrap;html=1;" vertex="1" parent="1">
          <mxGeometry x="222" y="370" width="90" height="40" as="geometry" />
        </mxCell>
        <mxCell id="gOxxzV-3G9eCt_8XdLP--29" value="Menge" style="text;html=1;align=center;verticalAlign=middle;whiteSpace=wrap;rounded=0;" vertex="1" parent="1">
          <mxGeometry x="147" y="375" width="60" height="30" as="geometry" />
        </mxCell>
        <mxCell id="gOxxzV-3G9eCt_8XdLP--33" value="Hinzufügen&lt;span style=&quot;caret-color: rgba(0, 0, 0, 0); color: rgba(0, 0, 0, 0); font-family: monospace; font-size: 0px; text-align: start; white-space: nowrap;&quot;&gt;%3CmxGraphModel%3E%3Croot%3E%3CmxCell%20id%3D%220%22%2F%3E%3CmxCell%20id%3D%221%22%20parent%3D%220%22%2F%3E%3CmxCell%20id%3D%222%22%20value%3D%22Tag%20l%C3%B6schen%22%20style%3D%22rounded%3D0%3BwhiteSpace%3Dwrap%3Bhtml%3D1%3BfillColor%3D%23d5e8d4%3BstrokeColor%3D%2382b366%3B%22%20vertex%3D%221%22%20parent%3D%221%22%3E%3CmxGeometry%20x%3D%22529%22%20y%3D%22190%22%20width%3D%22111%22%20height%3D%2240%22%20as%3D%22geometry%22%2F%3E%3C%2FmxCell%3E%3C%2Froot%3E%3C%2FmxGraphModel%3E&lt;/span&gt;" style="rounded=0;whiteSpace=wrap;html=1;fillColor=#d5e8d4;strokeColor=#82b366;" vertex="1" parent="1">
          <mxGeometry x="410.5" y="370" width="111" height="40" as="geometry" />
        </mxCell>
        <mxCell id="gOxxzV-3G9eCt_8XdLP--34" value="Zurück zur Mahlzeit" style="rounded=0;whiteSpace=wrap;html=1;fillColor=#d5e8d4;strokeColor=#82b366;" vertex="1" parent="1">
          <mxGeometry x="602" y="370" width="111" height="40" as="geometry" />
        </mxCell>
        <mxCell id="gOxxzV-3G9eCt_8XdLP--39" value="" style="rounded=0;whiteSpace=wrap;html=1;" vertex="1" parent="1">
          <mxGeometry x="180" y="1170" width="440" height="340" as="geometry" />
        </mxCell>
        <mxCell id="gOxxzV-3G9eCt_8XdLP--59" value="Mahlzeit Übersicht" style="text;html=1;align=center;verticalAlign=middle;whiteSpace=wrap;rounded=0;" vertex="1" parent="1">
          <mxGeometry x="367.25" y="460" width="105.5" height="30" as="geometry" />
        </mxCell>
        <mxCell id="gOxxzV-3G9eCt_8XdLP--60" value="Produkt 1" style="rounded=0;whiteSpace=wrap;html=1;" vertex="1" parent="1">
          <mxGeometry x="102" y="500" width="120" height="60" as="geometry" />
        </mxCell>
        <mxCell id="gOxxzV-3G9eCt_8XdLP--61" value="Produkt 2" style="rounded=0;whiteSpace=wrap;html=1;" vertex="1" parent="1">
          <mxGeometry x="275" y="500" width="120" height="60" as="geometry" />
        </mxCell>
        <mxCell id="gOxxzV-3G9eCt_8XdLP--62" value="Produkt 3" style="rounded=0;whiteSpace=wrap;html=1;" vertex="1" parent="1">
          <mxGeometry x="440.5" y="500" width="120" height="60" as="geometry" />
        </mxCell>
        <mxCell id="gOxxzV-3G9eCt_8XdLP--63" value="Produkt 4" style="rounded=0;whiteSpace=wrap;html=1;" vertex="1" parent="1">
          <mxGeometry x="610" y="500" width="120" height="60" as="geometry" />
        </mxCell>
        <mxCell id="gOxxzV-3G9eCt_8XdLP--64" value="" style="rounded=0;whiteSpace=wrap;html=1;" vertex="1" parent="1">
          <mxGeometry x="190" y="820" width="420" height="320" as="geometry" />
        </mxCell>
        <mxCell id="gOxxzV-3G9eCt_8XdLP--65" value="Produktdetails" style="text;html=1;align=center;verticalAlign=middle;whiteSpace=wrap;rounded=0;" vertex="1" parent="1">
          <mxGeometry x="365" y="840" width="60" height="30" as="geometry" />
        </mxCell>
        <mxCell id="gOxxzV-3G9eCt_8XdLP--66" value="Bild" style="rounded=0;whiteSpace=wrap;html=1;" vertex="1" parent="1">
          <mxGeometry x="345" y="890" width="110" height="40" as="geometry" />
        </mxCell>
        <mxCell id="gOxxzV-3G9eCt_8XdLP--67" value="100" style="rounded=0;whiteSpace=wrap;html=1;" vertex="1" parent="1">
          <mxGeometry x="394.5" y="960" width="90" height="40" as="geometry" />
        </mxCell>
        <mxCell id="gOxxzV-3G9eCt_8XdLP--68" value="Menge" style="text;html=1;align=center;verticalAlign=middle;whiteSpace=wrap;rounded=0;" vertex="1" parent="1">
          <mxGeometry x="324.5" y="965" width="60" height="30" as="geometry" />
        </mxCell>
        <mxCell id="gOxxzV-3G9eCt_8XdLP--69" value="Hinzufügen&lt;span style=&quot;caret-color: rgba(0, 0, 0, 0); color: rgba(0, 0, 0, 0); font-family: monospace; font-size: 0px; text-align: start; white-space: nowrap;&quot;&gt;%3CmxGraphModel%3E%3Croot%3E%3CmxCell%20id%3D%220%22%2F%3E%3CmxCell%20id%3D%221%22%20parent%3D%220%22%2F%3E%3CmxCell%20id%3D%222%22%20value%3D%22Tag%20l%C3%B6schen%22%20style%3D%22rounded%3D0%3BwhiteSpace%3Dwrap%3Bhtml%3D1%3BfillColor%3D%23d5e8d4%3BstrokeColor%3D%2382b366%3B%22%20vertex%3D%221%22%20parent%3D%221%22%3E%3CmxGeometry%20x%3D%22529%22%20y%3D%22190%22%20width%3D%22111%22%20height%3D%2240%22%20as%3D%22geometry%22%2F%3E%3C%2FmxCell%3E%3C%2Froot%3E%3C%2FmxGraphModel%3E&lt;/span&gt;" style="rounded=0;whiteSpace=wrap;html=1;fillColor=#d5e8d4;strokeColor=#82b366;" vertex="1" parent="1">
          <mxGeometry x="353" y="1030" width="121.75" height="31" as="geometry" />
        </mxCell>
        <mxCell id="gOxxzV-3G9eCt_8XdLP--70" value="Zurück zur Mahlzeit" style="rounded=0;whiteSpace=wrap;html=1;fillColor=#d5e8d4;strokeColor=#82b366;" vertex="1" parent="1">
          <mxGeometry x="353" y="1080" width="120" height="31" as="geometry" />
        </mxCell>
        <mxCell id="gOxxzV-3G9eCt_8XdLP--77" value="Mahlzeit Übersicht" style="text;html=1;align=center;verticalAlign=middle;whiteSpace=wrap;rounded=0;" vertex="1" parent="1">
          <mxGeometry x="342.25" y="1190" width="105.5" height="30" as="geometry" />
        </mxCell>
        <mxCell id="gOxxzV-3G9eCt_8XdLP--78" value="Produkt 1" style="rounded=0;whiteSpace=wrap;html=1;" vertex="1" parent="1">
          <mxGeometry x="335" y="1240" width="120" height="60" as="geometry" />
        </mxCell>
        <mxCell id="gOxxzV-3G9eCt_8XdLP--79" value="Produkt 2" style="rounded=0;whiteSpace=wrap;html=1;" vertex="1" parent="1">
          <mxGeometry x="335" y="1320" width="120" height="60" as="geometry" />
        </mxCell>
        <mxCell id="gOxxzV-3G9eCt_8XdLP--80" value="Produkt 3" style="rounded=0;whiteSpace=wrap;html=1;" vertex="1" parent="1">
          <mxGeometry x="335" y="1400" width="120" height="60" as="geometry" />
        </mxCell>
      </root>
    </mxGraphModel>
  </diagram>
</mxfile>
